<svg xmlns="http://www.w3.org/2000/svg" width="269.292" height="85.04" viewBox="0 0 269.292 85.04"><defs><style>.a{isolation:isolate;}.b{fill:#ed1c24;}</style></defs><g class="a" transform="translate(-40.667 -39.355)"><rect class="b" width="120.472" height="5.102" transform="translate(40.666 114.955)"/><path class="b" d="M255.355,76.392v10H274.5c0,3.91-.215,4.812-1,5.638-1.361,1.28-4.014,1.506-16.42,1.506l-8.533-.15c-4.088-.153-5.377-.377-6.6-1.43-1.58-1.353-2.008-3.91-2.008-12.4,0-13.009.073-13.083,17.137-13.083,11.115,0,14.412.3,15.848,1.353.931.677,1.074,1.279,1.146,4.21h14.557c-.07-7.368-.645-10.45-2.652-12.931-3.157-3.909-9.752-5.189-27.538-5.189-16.779,0-24.378.978-27.82,3.534-4.015,2.858-5.234,7.97-5.234,21.354,0,6.015.142,11.128.359,13.157.572,5.262,1.863,8.121,4.658,10.074,4.018,2.869,9.108,3.547,25.53,3.547,12.906,0,18-.3,22.873-1.365,5.736-1.2,8.82-4.662,9.394-10.527.215-2.407.5-10.977.5-15.94V76.392Zm-56.361,8.946-9.25-19.021h-2.869l-9.25,19.021Zm9.18,19.472-4.088-8.494H172.462l-4.087,8.494H151.729l25.323-50.147h22.659l25.025,50.147Zm-106.7-50.147V67.444h21.3V104.81h15.273V67.444h21.3V54.663ZM40.667,88.195v2.633c0,6.69,1.076,9.623,4.374,11.8,3.371,2.179,9.179,2.945,24.022,2.945,14.27,0,20.293-.375,23.161-1.516,5.019-1.955,6.955-6.165,6.955-15.263,0-6.692-1.29-10.149-4.517-12.33-3.083-2.029-6.167-2.406-21.941-2.932-10.111-.3-14.055-.527-15.346-.9-1.506-.375-2.151-1.354-2.151-3.233,0-3.683,1.076-3.985,12.908-3.985,10.756,0,12.548.151,13.766.9,1.076.676,1.291,1.354,1.435,4.134H97.388c.071-1.052.071-2.1.071-2.555,0-5.714-1.219-8.948-4.016-10.9-3.37-2.4-8.46-3.083-22.086-3.083-11.759,0-18.212.3-21.081.9-6.6,1.5-9.179,5.789-9.179,15.338,0,11.052,3.3,14.21,15.13,14.585,4.375.227,8.176.375,11.617.528l3.8.15,7.674.3c4.66.076,5.736.828,5.736,3.758,0,4.511,0,4.511-15.632,4.511-10.254,0-11.832-.148-13.195-1.052-1.146-.75-1.434-1.729-1.434-4.737Z"/><rect class="b" width="248.031" height="5.102" transform="translate(40.666 39.355)"/><path class="b" d="M281.4,118.822l2.075-.324a1.578,1.578,0,0,0,.539.945,1.774,1.774,0,0,0,1.132.323,1.975,1.975,0,0,0,1.206-.305.68.68,0,0,0,.273-.566.584.584,0,0,0-.146-.407,1.668,1.668,0,0,0-.692-.277,11.011,11.011,0,0,1-3.174-1.039,2.1,2.1,0,0,1-.926-1.817,2.254,2.254,0,0,1,.8-1.757,3.658,3.658,0,0,1,2.487-.715,4.255,4.255,0,0,1,2.386.539,2.751,2.751,0,0,1,1.073,1.6l-1.95.369a1.227,1.227,0,0,0-.474-.719,1.685,1.685,0,0,0-1-.252,2.181,2.181,0,0,0-1.172.236.512.512,0,0,0-.233.432.474.474,0,0,0,.205.387,7.6,7.6,0,0,0,1.932.6,5.636,5.636,0,0,1,2.307.95,2,2,0,0,1,.648,1.583,2.463,2.463,0,0,1-.9,1.907,3.884,3.884,0,0,1-2.655.795,4.277,4.277,0,0,1-2.531-.668,3.078,3.078,0,0,1-1.215-1.815m-12.828-5.756h1.907v1.1a3.034,3.034,0,0,1,2.435-1.283,2.555,2.555,0,0,1,1.3.318,2.409,2.409,0,0,1,.906.965,3.6,3.6,0,0,1,1.111-.965,2.643,2.643,0,0,1,1.272-.318,2.751,2.751,0,0,1,1.457.363,2.164,2.164,0,0,1,.891,1.057,4.737,4.737,0,0,1,.212,1.67v5.15H278v-4.605a3.467,3.467,0,0,0-.215-1.547.968.968,0,0,0-.881-.457,1.382,1.382,0,0,0-.82.275,1.509,1.509,0,0,0-.549.8,5.891,5.891,0,0,0-.172,1.664v3.869H273.3v-4.414a6.4,6.4,0,0,0-.111-1.519.986.986,0,0,0-.34-.508,1.065,1.065,0,0,0-.633-.168,1.448,1.448,0,0,0-1.408,1.035,5.85,5.85,0,0,0-.166,1.658v3.916H268.57Zm-3.586,3.338a2.089,2.089,0,0,0-.461-1.408,1.459,1.459,0,0,0-2.193.029,1.993,1.993,0,0,0-.434,1.379Zm-.117,2.155,2.063.355a3.491,3.491,0,0,1-1.256,1.779,3.581,3.581,0,0,1-2.145.612,3.445,3.445,0,0,1-3.017-1.373,4.716,4.716,0,0,1-.774-2.776,4.53,4.53,0,0,1,1.016-3.138,3.3,3.3,0,0,1,2.568-1.135,3.414,3.414,0,0,1,2.752,1.187,5.393,5.393,0,0,1,.965,3.641h-5.182a2.2,2.2,0,0,0,.5,1.473,1.555,1.555,0,0,0,1.194.529,1.245,1.245,0,0,0,.816-.273,1.688,1.688,0,0,0,.5-.881m-5.961-5.493v1.7h-1.412v3.248a7.947,7.947,0,0,0,.041,1.15.473.473,0,0,0,.184.268.571.571,0,0,0,.347.107,2.635,2.635,0,0,0,.834-.205l.176,1.652a4.018,4.018,0,0,1-1.635.319,2.552,2.552,0,0,1-1.006-.192,1.506,1.506,0,0,1-.66-.5,2.058,2.058,0,0,1-.291-.832,10.936,10.936,0,0,1-.064-1.5v-3.511h-.949v-1.7h.949v-1.6l2.074-1.242v2.845Zm-12.693,5.756,2.074-.324a1.578,1.578,0,0,0,.539.945,1.783,1.783,0,0,0,1.133.323,1.969,1.969,0,0,0,1.205-.305.677.677,0,0,0,.273-.566.572.572,0,0,0-.148-.407,1.656,1.656,0,0,0-.689-.277,11,11,0,0,1-3.174-1.039,2.1,2.1,0,0,1-.928-1.817,2.256,2.256,0,0,1,.8-1.757,3.655,3.655,0,0,1,2.486-.715,4.26,4.26,0,0,1,2.387.539,2.75,2.75,0,0,1,1.072,1.6l-1.949.369a1.224,1.224,0,0,0-.475-.719,1.691,1.691,0,0,0-1-.252,2.18,2.18,0,0,0-1.17.236.511.511,0,0,0-.234.432.474.474,0,0,0,.207.387,7.567,7.567,0,0,0,1.932.6,5.63,5.63,0,0,1,2.306.95,2,2,0,0,1,.649,1.583,2.467,2.467,0,0,1-.9,1.907,3.883,3.883,0,0,1-2.654.795,4.267,4.267,0,0,1-2.529-.668,3.068,3.068,0,0,1-1.217-1.815m-8.633-5.756h2.2l1.869,5.721,1.827-5.721h2.14l-2.758,7.754-.494,1.4a6.059,6.059,0,0,1-.517,1.076,2.306,2.306,0,0,1-.569.6,2.427,2.427,0,0,1-.787.362,4.039,4.039,0,0,1-1.056.129,5.427,5.427,0,0,1-1.17-.129l-.186-1.672a4.281,4.281,0,0,0,.877.1,1.279,1.279,0,0,0,1.068-.433,3.091,3.091,0,0,0,.532-1.111Zm-8.133,5.756,2.076-.324a1.576,1.576,0,0,0,.537.945,1.779,1.779,0,0,0,1.133.323,1.971,1.971,0,0,0,1.205-.305.678.678,0,0,0,.274-.566.58.58,0,0,0-.147-.407,1.662,1.662,0,0,0-.691-.277,11.023,11.023,0,0,1-3.174-1.039,2.1,2.1,0,0,1-.926-1.817,2.254,2.254,0,0,1,.8-1.757,3.659,3.659,0,0,1,2.486-.715,4.251,4.251,0,0,1,2.387.539,2.748,2.748,0,0,1,1.074,1.6l-1.951.369a1.234,1.234,0,0,0-.472-.719,1.7,1.7,0,0,0-1-.252,2.171,2.171,0,0,0-1.169.236.51.51,0,0,0-.235.432.48.48,0,0,0,.2.387,7.615,7.615,0,0,0,1.932.6,5.63,5.63,0,0,1,2.307.95,2,2,0,0,1,.648,1.583,2.463,2.463,0,0,1-.9,1.907,3.888,3.888,0,0,1-2.655.795,4.267,4.267,0,0,1-2.529-.668,3.072,3.072,0,0,1-1.217-1.815m-12.57,0,2.076-.324a1.576,1.576,0,0,0,.537.945,1.783,1.783,0,0,0,1.133.323,1.969,1.969,0,0,0,1.205-.305.679.679,0,0,0,.275-.566.581.581,0,0,0-.148-.407,1.675,1.675,0,0,0-.691-.277,11,11,0,0,1-3.174-1.039,2.1,2.1,0,0,1-.926-1.817,2.254,2.254,0,0,1,.8-1.757,3.661,3.661,0,0,1,2.488-.715,4.257,4.257,0,0,1,2.385.539,2.753,2.753,0,0,1,1.074,1.6l-1.951.369a1.231,1.231,0,0,0-.473-.719,1.691,1.691,0,0,0-1-.252,2.18,2.18,0,0,0-1.17.236.506.506,0,0,0-.234.432.477.477,0,0,0,.205.387,7.631,7.631,0,0,0,1.932.6,5.605,5.605,0,0,1,2.306.95,2,2,0,0,1,.649,1.583,2.461,2.461,0,0,1-.9,1.907,3.879,3.879,0,0,1-2.654.795,4.271,4.271,0,0,1-2.529-.668,3.067,3.067,0,0,1-1.217-1.815m-3.344-1.568a12.484,12.484,0,0,1-1.258.328,3.789,3.789,0,0,0-1.125.369.9.9,0,0,0-.4.752,1.056,1.056,0,0,0,.324.774,1.118,1.118,0,0,0,.824.326,1.758,1.758,0,0,0,1.067-.379,1.313,1.313,0,0,0,.492-.707,4.266,4.266,0,0,0,.08-1.037Zm-2.764-1.731-1.876-.349a3.015,3.015,0,0,1,1.087-1.729,3.909,3.909,0,0,1,2.295-.562,4.787,4.787,0,0,1,2.063.34,2.074,2.074,0,0,1,.953.857,4.512,4.512,0,0,1,.275,1.908l-.023,2.489a8.693,8.693,0,0,0,.1,1.566,4.6,4.6,0,0,0,.372,1.08h-2.047c-.053-.143-.121-.351-.2-.629a2.492,2.492,0,0,0-.072-.252,3.74,3.74,0,0,1-1.133.8,3.173,3.173,0,0,1-1.289.264,2.621,2.621,0,0,1-1.9-.674,2.28,2.28,0,0,1-.693-1.709,2.351,2.351,0,0,1,.314-1.217,2.094,2.094,0,0,1,.889-.818,6.765,6.765,0,0,1,1.644-.5,10.818,10.818,0,0,0,2.006-.524v-.211a1.129,1.129,0,0,0-.293-.879,1.729,1.729,0,0,0-1.111-.261,1.439,1.439,0,0,0-.86.226,1.528,1.528,0,0,0-.5.783m-9.1,1.4a2.984,2.984,0,0,0,.482,1.879,1.477,1.477,0,0,0,1.19.593,1.63,1.63,0,0,0,1.279-.609,2.727,2.727,0,0,0,.523-1.811,2.878,2.878,0,0,0-.5-1.857,1.562,1.562,0,0,0-1.263-.609,1.519,1.519,0,0,0-1.227.6,2.872,2.872,0,0,0-.482,1.819m-1.846,4.726,2.361.295a.852.852,0,0,0,.272.586,1.514,1.514,0,0,0,.928.227,2.347,2.347,0,0,0,1.215-.25,1.036,1.036,0,0,0,.412-.539,3.393,3.393,0,0,0,.095-.979v-1.176a2.78,2.78,0,0,1-2.341,1.305,2.86,2.86,0,0,1-2.5-1.371,4.8,4.8,0,0,1-.72-2.7,4.542,4.542,0,0,1,.945-3.1,3.017,3.017,0,0,1,2.354-1.07,2.841,2.841,0,0,1,2.39,1.312v-1.129h1.936V120.3a7.313,7.313,0,0,1-.231,2.133,2.646,2.646,0,0,1-.637,1.107,2.847,2.847,0,0,1-1.1.629,5.678,5.678,0,0,1-1.74.229,4.4,4.4,0,0,1-2.819-.7,2.224,2.224,0,0,1-.832-1.777c0-.072,0-.158.008-.26m-7.375-4.56A2.718,2.718,0,0,0,193,118.93a1.771,1.771,0,0,0,2.719,0,2.763,2.763,0,0,0,.548-1.852,2.714,2.714,0,0,0-.548-1.82,1.769,1.769,0,0,0-2.719,0,2.722,2.722,0,0,0-.553,1.836m-2.121-.114a4.505,4.505,0,0,1,.508-2.056,3.569,3.569,0,0,1,1.439-1.516,4.174,4.174,0,0,1,2.08-.525,3.841,3.841,0,0,1,2.907,1.187,4.178,4.178,0,0,1,1.132,3,4.224,4.224,0,0,1-1.142,3.031,3.812,3.812,0,0,1-2.881,1.2,4.431,4.431,0,0,1-2.051-.5,3.4,3.4,0,0,1-1.484-1.469,5.048,5.048,0,0,1-.508-2.356m-.957-3.914v1.7h-1.412v3.248a8.288,8.288,0,0,0,.041,1.15.477.477,0,0,0,.183.268.58.58,0,0,0,.35.107,2.666,2.666,0,0,0,.834-.205l.176,1.652a4.041,4.041,0,0,1-1.637.319,2.552,2.552,0,0,1-1.006-.192,1.5,1.5,0,0,1-.658-.5,2.014,2.014,0,0,1-.291-.832,10.825,10.825,0,0,1-.066-1.5v-3.511h-.95v-1.7h.95v-1.6l2.074-1.242v2.845Zm-7.643,8.057v-1.207a3.13,3.13,0,0,1-2.593,1.389,2.829,2.829,0,0,1-1.411-.354,2.089,2.089,0,0,1-.907-1,4.584,4.584,0,0,1-.279-1.783v-5.1h2.067v3.7a10.447,10.447,0,0,0,.116,2.084,1.14,1.14,0,0,0,.414.607,1.263,1.263,0,0,0,.767.223,1.582,1.582,0,0,0,.949-.3,1.523,1.523,0,0,0,.572-.744,8.826,8.826,0,0,0,.156-2.174v-3.4h2.067v8.057Zm-9.217-3.869a12.75,12.75,0,0,1-1.259.328,3.82,3.82,0,0,0-1.126.369.9.9,0,0,0-.4.752,1.059,1.059,0,0,0,.323.774,1.121,1.121,0,0,0,.825.326,1.76,1.76,0,0,0,1.067-.379,1.315,1.315,0,0,0,.493-.707,4.265,4.265,0,0,0,.08-1.037Zm-2.765-1.731-1.877-.349a3.02,3.02,0,0,1,1.087-1.729,3.911,3.911,0,0,1,2.3-.562,4.787,4.787,0,0,1,2.063.34,2.067,2.067,0,0,1,.952.857,4.525,4.525,0,0,1,.276,1.908l-.022,2.489a8.713,8.713,0,0,0,.1,1.566,4.691,4.691,0,0,0,.372,1.08h-2.047c-.053-.143-.12-.351-.2-.629-.032-.127-.056-.209-.071-.252a3.768,3.768,0,0,1-1.134.8,3.176,3.176,0,0,1-1.289.264,2.615,2.615,0,0,1-1.9-.674,2.275,2.275,0,0,1-.7-1.709,2.352,2.352,0,0,1,.316-1.217,2.094,2.094,0,0,1,.887-.818,6.765,6.765,0,0,1,1.644-.5,10.828,10.828,0,0,0,2.008-.524v-.211a1.136,1.136,0,0,0-.293-.879,1.733,1.733,0,0,0-1.111-.261,1.443,1.443,0,0,0-.862.226,1.533,1.533,0,0,0-.5.783"/><path class="b" d="M301.2,43.906h.619a7.208,7.208,0,0,1,1.639.108.978.978,0,0,1,.512.35.917.917,0,0,1,.181.56.964.964,0,0,1-.689.934,7.459,7.459,0,0,1-1.643.1H301.2Zm0,6.328V47.145h.4a1.686,1.686,0,0,1,1.056.319,5.085,5.085,0,0,1,1.055,1.55l.629,1.22h1.887l-.889-1.516c-.314-.536-.5-.843-.555-.916a3.79,3.79,0,0,0-.508-.578,1.851,1.851,0,0,0-.527-.283,2.429,2.429,0,0,0,1.494-.716,1.991,1.991,0,0,0,.532-1.393,2.11,2.11,0,0,0-.282-1.078,1.905,1.905,0,0,0-.7-.722,2.949,2.949,0,0,0-1.178-.3q-.26-.018-2.406-.019H299.67v7.521Zm4.492-8.76a5.293,5.293,0,0,1,2.118,2.1,5.705,5.705,0,0,1,.015,5.709,5.438,5.438,0,0,1-2.1,2.11,5.683,5.683,0,0,1-5.668,0,5.39,5.39,0,0,1-2.1-2.11,5.721,5.721,0,0,1,.018-5.709,5.311,5.311,0,0,1,2.115-2.1,5.742,5.742,0,0,1,5.611,0m-6.314-1.207a6.58,6.58,0,0,0-2.633,2.613,7.109,7.109,0,0,0-.019,7.092,6.7,6.7,0,0,0,2.619,2.617,7.1,7.1,0,0,0,7.058,0,6.671,6.671,0,0,0,2.619-2.617A7.1,7.1,0,0,0,309,42.88a6.575,6.575,0,0,0-2.631-2.613,7.16,7.16,0,0,0-6.994,0"/></g></svg>