<svg width="186" height="129" viewBox="0 0 186 129" fill="none" xmlns="http://www.w3.org/2000/svg">
<mask id="mask0_2136_768" style="mask-type:luminance" maskUnits="userSpaceOnUse" x="0" y="0" width="186" height="129">
<path d="M185.633 0H0V129H185.633V0Z" fill="white"/>
</mask>
<g mask="url(#mask0_2136_768)">
<mask id="mask1_2136_768" style="mask-type:luminance" maskUnits="userSpaceOnUse" x="-519" y="-279" width="817" height="460">
<path d="M297.075 -278.211H-518.444V180.519H297.075V-278.211Z" fill="white"/>
</mask>
<g mask="url(#mask1_2136_768)">
<path d="M103.886 51.1285C104.629 51.1285 105.231 51.4824 105.691 52.1903C106.098 52.8275 106.31 53.5531 106.31 54.3672V71.1448C106.31 71.782 106.54 72.6669 106.965 73.7995C107.408 74.9322 107.62 75.8171 107.62 76.4365C107.62 77.6399 106.912 78.2417 105.461 78.2417C104.01 78.2417 102.912 77.5691 102.134 76.2064C101.496 75.0914 101.16 73.7287 101.16 72.1359V54.1194C101.16 53.3053 101.426 52.6151 101.939 52.0311C102.47 51.447 103.107 51.1639 103.868 51.1639M89.8866 71.9943C89.8866 72.4544 90.0459 72.8615 90.3822 73.1801C90.7007 73.4986 91.1078 73.6579 91.5679 73.6579C92.5767 73.6579 93.0722 73.0385 93.0722 71.7642C93.0722 70.72 92.5944 70.1891 91.621 70.1891C91.1077 70.1891 90.683 70.3484 90.3645 70.6847C90.0459 71.0209 89.8866 71.4457 89.8866 71.9766V71.9943ZM83.7631 72.2952C83.7631 70.9325 84.1702 69.6936 84.9843 68.5786C85.7453 67.5167 86.7895 66.7027 88.0991 66.1186C88.9132 65.9063 89.7273 65.6939 90.5414 65.4992C91.6387 65.1629 92.2051 64.6143 92.2051 63.8533C92.2051 63.2692 91.8511 62.8799 91.1609 62.6852C91.0724 62.6852 90.8246 62.6498 90.3822 62.6498C90.1167 62.6498 89.6919 62.6852 89.161 62.7206C88.6301 62.7737 88.2053 62.8091 87.9399 62.8091C87.3558 62.8091 86.8426 62.6852 86.4178 62.4197C85.9046 62.1012 85.6391 61.6588 85.6391 61.0747C85.6391 59.9244 86.5417 59.0571 88.3469 58.5085C89.5857 58.1192 90.9308 57.9245 92.382 57.9245C94.8067 57.9245 96.541 58.597 97.5675 59.9598C98.3639 61.0216 98.824 62.6675 98.9302 64.8798C98.9833 66.8442 99.0187 68.8264 99.0541 70.8086C99.1603 71.7289 99.2842 72.7376 99.4258 73.8703C99.4435 74.2773 99.4612 74.5074 99.4612 74.5605C99.4612 75.6401 99.178 76.4011 98.594 76.8612C98.1515 77.2152 97.4436 77.4099 96.5056 77.4453H93.9571C93.497 77.463 92.8068 77.5692 91.8511 77.7815C90.9485 77.9762 90.2406 78.0647 89.745 78.0647C88.0637 78.0647 86.6302 77.5161 85.4798 76.4365C84.3295 75.3392 83.7631 73.9588 83.7631 72.2598V72.2952ZM76.7901 53.3584C76.7901 52.6505 77.0025 52.0488 77.4096 51.5886C77.8343 51.1285 78.4007 50.8984 79.1086 50.8984C79.8165 50.8984 80.3651 51.1285 80.8253 51.5886C81.2854 52.0488 81.5332 52.6328 81.5332 53.323C81.5332 54.0133 81.3031 54.615 80.8607 55.2344C80.3829 55.9069 79.8342 56.2432 79.1971 56.2432C78.56 56.2432 77.9759 55.9246 77.4804 55.2698C77.0202 54.6504 76.7725 54.0132 76.7725 53.3584H76.7901ZM79.321 58.42C80.0112 58.42 80.5952 58.9156 81.0908 59.8889C81.4978 60.703 81.6925 61.4995 81.6925 62.2251V74.2951C81.6925 75.1269 81.4801 75.8702 81.0553 76.5073C80.5775 77.2506 79.9404 77.6046 79.144 77.6046C78.3476 77.6046 77.6751 77.2329 77.1972 76.5073C76.7725 75.8702 76.5601 75.1269 76.5601 74.2951V62.4552C76.5601 61.6588 76.8256 60.827 77.3388 59.9244C77.9229 58.9156 78.5777 58.4023 79.321 58.4023V58.42ZM61.4284 68.1893C61.4284 65.3576 62.1363 63.0038 63.5522 61.1101C65.1273 58.9864 67.2687 57.9245 70.0119 57.9245C70.9322 57.9245 71.764 58.0661 72.4896 58.367C73.463 58.774 73.9585 59.3934 73.9585 60.2075C73.9585 60.8092 73.6046 61.2871 72.8966 61.6234C72.5604 61.7826 71.8171 62.0127 70.7021 62.2782C69.7287 62.5082 69.0739 62.756 68.7376 63.0215C67.605 63.9064 67.0563 65.6231 67.0563 68.207C67.0563 69.4989 67.251 70.6316 67.6404 71.5873C68.1713 72.9146 69.0031 73.6225 70.1358 73.7287L73.1975 73.9942C73.5337 74.0119 73.8346 74.1712 74.0824 74.4543C74.3301 74.7375 74.4717 75.0561 74.4717 75.3923C74.4717 76.348 73.87 77.0382 72.7019 77.4807C71.8878 77.7992 70.8967 77.9408 69.7641 77.9408C67.0386 77.9408 64.9503 76.9674 63.4813 75.0383C62.1363 73.2863 61.4638 71.0032 61.4638 68.207L61.4284 68.1893ZM48.0488 68.614C48.0488 72.3306 49.0576 74.1712 51.0928 74.1712C53.1281 74.1712 54.1722 72.2598 54.1722 68.4371C54.1722 64.6143 53.1635 62.933 51.1459 62.933C49.1283 62.933 48.0488 64.8267 48.0488 68.5963V68.614ZM42.4386 68.5609C42.4386 65.8177 43.1642 63.517 44.6154 61.6587C46.1905 59.6412 48.3319 58.6324 51.022 58.6324C53.7121 58.6324 55.9774 59.6058 57.5703 61.5526C59.0569 63.3754 59.8002 65.6939 59.8002 68.5255C59.8002 71.3572 59.0569 73.711 57.588 75.5339C55.9952 77.4983 53.8183 78.4895 51.0574 78.4895C48.2966 78.4895 46.1728 77.4984 44.5977 75.4985C43.1642 73.6756 42.4386 71.3572 42.4386 68.5432V68.5609ZM26.7051 75.8348C26.7051 74.8968 27.3069 74.4366 28.4926 74.4366C28.8643 74.4366 29.3952 74.4897 30.0854 74.5605C30.7756 74.649 31.3243 74.7021 31.6782 74.7021H32.6693C33.7843 74.4366 34.3329 73.8526 34.3329 72.9146C34.3329 71.9766 33.6073 71.251 32.1384 70.6316C29.7492 69.6405 28.3864 69.0211 28.0856 68.8264C26.6343 67.8353 25.9087 66.4195 25.9087 64.5789C25.9087 62.7383 26.6697 61.1809 28.2095 60.0482C29.5899 59.0217 31.2535 58.5085 33.2003 58.5085C34.3506 58.5085 35.3948 58.6501 36.2797 58.9332C37.5539 59.3403 38.191 59.9775 38.191 60.8446C38.191 61.588 37.7486 62.0835 36.8637 62.2959C36.0496 62.4198 35.2178 62.5614 34.386 62.6852C33.5011 62.8976 33.0587 63.3578 33.0587 64.0657C33.0587 64.7736 33.7312 65.4815 35.0585 66.154C37.1115 67.1982 38.3326 67.8884 38.7397 68.207C40.0493 69.2512 40.7219 70.5785 40.7219 72.2067C40.7219 74.1888 39.837 75.7817 38.0672 76.9497C36.5275 77.9762 34.7046 78.5072 32.6516 78.5072C31.2712 78.5072 30.05 78.3479 29.0058 78.0293C27.4838 77.5691 26.7051 76.8435 26.7051 75.8348Z" fill="#E1DDD4"/>
<path fill-rule="evenodd" clip-rule="evenodd" d="M104.415 32.4049C104.415 32.4049 105.07 31.8563 103.654 31.2014C102.238 30.5466 102.132 29.9272 101.53 31.0952C100.911 32.2633 101.017 32.9358 101.053 33.2544C101.07 33.573 102.221 33.803 102.964 33.8207C103.707 33.8207 104.433 32.4049 104.433 32.4049M128.997 111.638C129.104 112.01 131.758 111.514 131.9 111.373C132.59 110.647 132.36 106.134 131.829 104.807C130.927 102.542 129.298 99.4799 129.298 99.4799C129.298 99.4799 129.564 100.524 129.422 102.188C129.281 103.834 129.068 104.471 128.573 105.32C128.272 106.241 127.299 106.541 128.98 111.656L128.997 111.638ZM154.182 102.418C154.182 102.418 153.403 103.073 154.058 106.577C154.429 108.524 155.066 111.939 155.226 113.921C155.58 112.629 156.606 112.222 158.217 111.09C159.031 110.506 158.801 108.063 158.535 106.241C158.27 104.418 156.553 105.32 154.182 102.4V102.418ZM114.202 24.8833C112.184 25.5204 111.14 27.8388 111.831 30.0687C112.538 32.2987 114.733 33.6083 116.733 32.9712C118.733 32.3341 119.795 30.0157 119.104 27.7857C118.396 25.5558 116.202 24.2461 114.202 24.8833ZM114.627 26.2106C113.83 26.4584 113.246 27.1132 112.999 27.9273C113.069 28.6883 113.583 29.2547 114.149 29.2193C114.733 29.1839 115.175 28.5113 115.122 27.7149C115.122 27.5911 115.087 27.4495 115.052 27.3433C115.742 27.6442 116.273 28.3875 116.326 29.2724C116.397 30.4581 115.653 31.4669 114.644 31.5731C115.158 31.7854 115.742 31.8386 116.308 31.6616C117.671 31.2368 118.379 29.6617 117.901 28.1574C117.423 26.6531 115.954 25.7681 114.591 26.1929L114.627 26.2106ZM128.396 26.069C129.635 25.3611 132.838 24.1046 132.59 20.4765C132.059 12.9549 127.281 10.6188 125.936 10.5657C123.812 10.5126 129.422 19.1138 126.396 24.1754C126.042 24.7771 126.343 24.2993 126.307 24.3524C125.493 23.8214 124.608 23.5382 122.839 23.2905C124.785 19.6801 122.502 14.2291 118.768 12.831C116.52 11.9815 115.848 11.9815 114.839 12.2824C113.919 12.5655 116.68 15.114 118.29 16.8484C119.317 17.9634 119.865 19.2553 120.166 20.1225C120.467 21.0074 120.75 22.1401 120.803 22.7241C120.856 23.2905 120.839 22.9188 120.874 22.9896C117.972 22.4232 116.786 21.9277 114.733 22.1755C114.149 22.2463 112.397 22.1932 112.131 22.2817C111.317 22.5117 111.795 23.609 111.282 24.4762C110.291 26.1929 108.025 25.4673 105.3 26.3522C103.92 26.7947 101.831 27.9096 101.583 27.8919C99.7252 27.768 98.9641 28.7237 98.4686 29.5201L99.2119 29.8033C99.2119 29.8033 98.504 32.4226 97.92 32.0863C97.4598 31.8209 97.3359 31.3784 97.3182 30.6351C96.7873 31.343 97.0528 31.343 96.3094 33.3606C95.5661 35.3781 96.4334 38.0859 98.2208 38.9177C102.999 41.1299 105.902 38.2275 109.937 40.1566C114.096 42.1387 114.786 43.0059 117.264 42.0148C118.06 41.6963 118.857 41.4485 118.361 42.9174C117.388 45.8376 112.946 56.3501 115.441 54.2087C118.892 51.2708 111.689 67.4113 113.83 65.6946C116.45 63.6063 113.883 78.5079 115.264 76.9682C117.211 74.7559 115.122 87.4807 116.556 85.18C118.042 82.7554 117.512 87.8524 118.467 91.9052C119.016 94.259 120.149 96.9845 122.201 98.6658C122.555 104.311 124.962 108.028 123.617 110.329C123.299 110.86 122.237 111.037 121.352 111.408C119.529 112.169 118.91 113.16 118.91 115.567C118.927 119.461 126.431 117.903 126.573 118.894C126.75 119.443 127.104 120.204 127.617 120.346C130.378 121.16 130.431 121.478 137.068 120.098C138.254 119.85 140.059 118.063 139.439 115.107C138.82 112.169 137.298 112.293 137.917 108.559C138.36 105.851 138.077 105.479 140.129 103.745C141.014 102.984 140.643 101.108 141.032 99.8162C141.775 97.3031 142.589 101.444 146.589 101.533C147.456 101.551 148.394 103.55 149.12 105.727C150.465 109.762 147.563 110.877 147.563 110.877C147.563 110.877 145.881 111.107 145.403 113.461C144.678 116.965 146.094 117.125 147.279 117.355C148.447 117.567 151.598 117.797 152.642 117.302C154.376 116.452 154.589 116.753 154.713 117.372C154.943 118.541 154.677 120.859 157.65 121.089C160.871 121.319 165.048 120.611 165.579 119.691C165.827 119.284 167.42 116.311 166.145 113.974C164.853 111.638 164.057 111.603 164.057 107.338C164.057 103.073 164.977 103.143 164.871 99.4622C164.783 95.7811 164.623 94.8607 165.137 94.1174C165.65 93.3741 165.738 94.5068 166.623 95.02C167.508 95.5333 168.057 95.2147 167.844 91.9583C167.632 88.7019 168.995 84.9146 168.375 81.8174C167.756 78.738 167.897 78.2601 169.42 79.8706C170.11 80.5963 170.765 80.3131 171.012 80.2246C171.313 80.1184 170.499 79.7114 170.375 77.7823C170.145 74.2427 169.331 70.9509 165.526 69.0749C161.703 67.1989 159.597 66.1902 154.606 65.8185C149.315 65.4115 150.076 66.0663 145.138 65.146C140.218 64.2257 138.076 64.6505 136.802 64.0133C135.475 63.3585 134.997 60.633 134.13 57.8722C132.926 54.1025 131.634 50.1912 132.519 50.8638C134.502 53.3238 132.024 45.8199 132.873 41.7494C133.581 38.4399 132.679 37.4311 133.599 38.5107C134.431 39.4664 133.351 30.9537 129.068 27.5026C127.21 25.9983 128.767 26.3345 128.431 26.0513L128.396 26.069Z" fill="#E1DDD4"/>
<path d="M96.3111 100.967C96.3111 101.604 96.5412 102.152 96.9837 102.595C97.4261 103.037 97.9748 103.267 98.6119 103.267C99.9923 103.267 100.683 102.4 100.683 100.666C100.683 99.2322 100.028 98.5066 98.7004 98.5066C97.9925 98.5066 97.4085 98.7367 96.966 99.1968C96.5236 99.657 96.3111 100.241 96.3111 100.967ZM87.8693 101.356C87.8693 99.48 88.4179 97.7633 89.5506 96.259C90.5948 94.8078 92.046 93.6751 93.8512 92.8787C94.9661 92.5955 96.0811 92.2946 97.2138 92.0292C98.7358 91.5513 99.4968 90.808 99.4968 89.7816C99.4968 88.9852 99.019 88.4542 98.0633 88.1711C97.9571 88.1534 97.6031 88.1356 97.0014 88.1356C96.6297 88.1356 96.0634 88.1711 95.3201 88.2419C94.5768 88.3127 94.0105 88.3657 93.6388 88.3657C92.8247 88.3657 92.1345 88.1887 91.5505 87.8348C90.8425 87.41 90.4886 86.7906 90.4886 85.9942C90.4886 84.4014 91.7274 83.2156 94.2051 82.4546C95.9041 81.9237 97.7447 81.6582 99.7445 81.6582C103.072 81.6582 105.461 82.5962 106.877 84.4545C107.974 85.9057 108.594 88.1711 108.753 91.2151C108.824 93.9229 108.877 96.6483 108.912 99.3738C109.071 100.63 109.231 102.028 109.408 103.586C109.443 104.152 109.461 104.471 109.461 104.524C109.461 106.011 109.071 107.072 108.275 107.692C107.656 108.17 106.7 108.435 105.408 108.506H101.886C101.267 108.541 100.293 108.683 98.9835 108.966C97.7447 109.232 96.7713 109.355 96.0811 109.355C93.7627 109.355 91.7982 108.612 90.2231 107.125C88.648 105.621 87.8516 103.728 87.8516 101.391L87.8693 101.356ZM50.7037 104.152C50.6683 100.064 50.6329 95.2856 50.5621 89.7816V88.9498C50.5621 85.5695 51.801 83.7466 54.261 83.4811C55.2344 83.4811 56.7564 83.3572 58.8093 83.1625C60.7738 82.9678 62.2781 82.8793 63.34 82.8793C64.1718 82.8793 65.3753 83.074 66.9327 83.4457C68.5078 83.8173 69.7112 84.012 70.543 84.012C71.3748 84.012 72.596 83.7997 74.1534 83.3749C75.7108 82.9502 76.9143 82.7378 77.7638 82.7378C80.0468 82.7378 81.852 83.6758 83.1793 85.5695C84.3474 87.2508 84.9137 89.286 84.9137 91.6929V104.152C84.9137 105.32 84.6482 106.329 84.0996 107.214C83.4802 108.223 82.6484 108.736 81.5688 108.736C80.4893 108.736 79.6929 108.24 79.038 107.285C78.4363 106.418 78.1354 105.426 78.1354 104.347V93.976C78.1354 92.9318 77.8345 91.9407 77.2328 91.0027C76.5603 89.9409 75.7108 89.4099 74.7197 89.4099C73.7287 89.4099 72.826 89.9939 72.1004 91.1797C71.481 92.2061 71.1624 93.2503 71.1624 94.3299V104.329C71.1624 105.356 70.8616 106.329 70.2599 107.232C69.5874 108.223 68.7733 108.718 67.8176 108.718C66.8619 108.718 66.0124 108.223 65.3222 107.232C64.7204 106.329 64.4196 105.356 64.4196 104.329V93.799C64.4196 92.7194 64.1364 91.746 63.5524 90.8788C62.9152 89.9054 62.1011 89.4099 61.0923 89.4099C60.0482 89.4099 59.1456 89.9408 58.4377 91.0204C57.7828 91.9938 57.4466 93.038 57.4466 94.1352V104.329C57.4466 105.409 57.1457 106.4 56.544 107.267C55.8892 108.24 55.0397 108.718 54.0132 108.718C51.9602 108.718 50.8453 107.196 50.6683 104.152H50.7037ZM35.041 100.967C35.041 101.604 35.2711 102.152 35.7136 102.595C36.156 103.037 36.7047 103.267 37.3418 103.267C38.7222 103.267 39.4124 102.4 39.4124 100.666C39.4124 99.2322 38.7576 98.5066 37.4303 98.5066C36.7223 98.5066 36.1383 98.7367 35.6958 99.1968C35.2534 99.657 35.041 100.241 35.041 100.967ZM26.6169 101.356C26.6169 99.48 27.1655 97.7633 28.2981 96.259C29.3423 94.8078 30.7935 93.6751 32.5987 92.8787C33.7137 92.5955 34.8287 92.2946 35.9614 92.0292C37.4834 91.5513 38.2443 90.808 38.2443 89.7816C38.2443 88.9852 37.7665 88.4542 36.8108 88.1711C36.7046 88.1534 36.3507 88.1356 35.749 88.1356C35.3773 88.1356 34.811 88.1711 34.0677 88.2419C33.3244 88.3127 32.758 88.3657 32.3863 88.3657C31.5722 88.3657 30.882 88.1887 30.298 87.8348C29.5901 87.41 29.2361 86.7906 29.2361 85.9942C29.2361 84.4014 30.475 83.2156 32.9527 82.4546C34.6517 81.9237 36.4923 81.6582 38.4921 81.6582C41.8193 81.6582 44.2086 82.5962 45.6244 84.4545C46.7217 85.9057 47.3411 88.1711 47.5004 91.2151C47.5712 93.9229 47.6242 96.6483 47.6596 99.3738C47.8189 100.63 47.9782 102.028 48.1552 103.586C48.1906 104.152 48.2083 104.471 48.2083 104.524C48.2083 106.011 47.8189 107.072 47.0225 107.692C46.4031 108.17 45.4474 108.435 44.1555 108.506H40.6336C40.0141 108.541 39.0408 108.683 37.7311 108.966C36.4923 109.232 35.5189 109.355 34.8287 109.355C32.5102 109.355 30.5458 108.612 28.9707 107.125C27.3956 105.621 26.5992 103.728 26.5992 101.391L26.6169 101.356ZM19.0775 72.2783C20.104 72.2783 20.9358 72.7562 21.5552 73.7296C22.1216 74.5968 22.4048 75.6055 22.4048 76.7028V99.7632C22.4048 100.63 22.7056 101.852 23.3073 103.409C23.909 104.966 24.2099 106.17 24.2099 107.037C24.2099 108.701 23.2366 109.515 21.2544 109.515C19.2722 109.515 17.7325 108.577 16.6706 106.718C15.7857 105.179 15.3433 103.32 15.3433 101.126V76.3489C15.3433 75.2339 15.6972 74.2782 16.4229 73.4641C17.1485 72.6677 18.0334 72.2783 19.0775 72.2783Z" fill="#E1DDD4"/>
</g>
</g>
</svg>
