<svg width="66" height="66" viewBox="0 0 66 66" fill="none" xmlns="http://www.w3.org/2000/svg">
<path d="M66 2.8316V51.9126C66 52.6636 65.7017 53.3839 65.1706 53.9149C64.6396 54.4459 63.9194 54.7442 63.1684 54.7442C62.4174 54.7442 61.6972 54.4459 61.1662 53.9149C60.6351 53.3839 60.3368 52.6636 60.3368 51.9126V9.66519L4.76196 65.24C4.22518 65.7402 3.51522 66.0125 2.78165 65.9996C2.04807 65.9866 1.34815 65.6894 0.829356 65.1706C0.310558 64.6518 0.0133843 63.9519 0.000441153 63.2184C-0.012502 62.4848 0.259796 61.7748 0.759969 61.238L56.3348 5.6632H14.0874C13.3364 5.6632 12.6161 5.36487 12.0851 4.83384C11.5541 4.30281 11.2558 3.58259 11.2558 2.8316C11.2558 2.08061 11.5541 1.36038 12.0851 0.829356C12.6161 0.298328 13.3364 0 14.0874 0H63.1684C63.9194 0 64.6396 0.298328 65.1706 0.829356C65.7017 1.36038 66 2.08061 66 2.8316Z" fill="#ED8C1B"/>
</svg>
