<svg width="105" height="73" viewBox="0 0 105 73" fill="none" xmlns="http://www.w3.org/2000/svg">
<mask id="mask0_2136_722" style="mask-type:luminance" maskUnits="userSpaceOnUse" x="0" y="0" width="105" height="73">
<path d="M105 0H0V72.9664H105V0Z" fill="white"/>
</mask>
<g mask="url(#mask0_2136_722)">
<mask id="mask1_2136_722" style="mask-type:luminance" maskUnits="userSpaceOnUse" x="-294" y="-158" width="463" height="261">
<path d="M168.036 -157.365H-293.247V102.107H168.036V-157.365Z" fill="white"/>
</mask>
<g mask="url(#mask1_2136_722)">

<path d="M58.7616 28.9203C59.1821 28.9203 59.5224 29.1205 59.7827 29.5209C60.0129 29.8813 60.1331 30.2917 60.1331 30.7522V40.2421C60.1331 40.6025 60.2632 41.103 60.5035 41.7437C60.7537 42.3844 60.8738 42.8849 60.8738 43.2352C60.8738 43.916 60.4734 44.2563 59.6526 44.2563C58.8317 44.2563 58.211 43.8759 57.7706 43.1051C57.4102 42.4744 57.22 41.7036 57.22 40.8027V30.612C57.22 30.1515 57.3702 29.7611 57.6605 29.4308C57.9608 29.1004 58.3212 28.9403 58.7516 28.9403M50.8434 40.7226C50.8434 40.9829 50.9335 41.2131 51.1237 41.3933C51.3038 41.5735 51.5341 41.6636 51.7943 41.6636C52.3649 41.6636 52.6452 41.3132 52.6452 40.5925C52.6452 40.0018 52.3749 39.7015 51.8244 39.7015C51.5341 39.7015 51.2938 39.7916 51.1136 39.9818C50.9334 40.172 50.8434 40.4123 50.8434 40.7126V40.7226ZM47.3797 40.8928C47.3797 40.122 47.61 39.4212 48.0704 38.7906C48.5009 38.19 49.0915 37.7295 49.8323 37.3991C50.2928 37.279 50.7533 37.1589 51.2137 37.0488C51.8344 36.8586 52.1547 36.5482 52.1547 36.1178C52.1547 35.7874 51.9545 35.5672 51.5641 35.4571C51.5141 35.4571 51.3739 35.4371 51.1237 35.4371C50.9735 35.4371 50.7332 35.4571 50.4329 35.4771C50.1326 35.5072 49.8924 35.5272 49.7422 35.5272C49.4119 35.5272 49.1215 35.4571 48.8813 35.3069C48.591 35.1267 48.4408 34.8765 48.4408 34.5462C48.4408 33.8955 48.9514 33.4049 49.9724 33.0946C50.6732 32.8744 51.434 32.7643 52.2548 32.7643C53.6263 32.7643 54.6073 33.1447 55.1879 33.9155C55.6384 34.5161 55.8986 35.4471 55.9587 36.6984C55.9887 37.8096 56.0088 38.9307 56.0288 40.0519C56.0888 40.5725 56.1589 41.143 56.239 41.7837C56.249 42.0139 56.259 42.1441 56.259 42.1741C56.259 42.7848 56.0988 43.2152 55.7685 43.4755C55.5182 43.6757 55.1178 43.7858 54.5873 43.8058H53.1458C52.8855 43.8159 52.4951 43.8759 51.9545 43.996C51.444 44.1062 51.0436 44.1562 50.7633 44.1562C49.8123 44.1562 49.0014 43.8459 48.3507 43.2352C47.7 42.6146 47.3797 41.8338 47.3797 40.8728V40.8928ZM43.4356 30.1816C43.4356 29.7812 43.5557 29.4408 43.786 29.1805C44.0262 28.9203 44.3466 28.7901 44.747 28.7901C45.1474 28.7901 45.4577 28.9203 45.718 29.1805C45.9782 29.4408 46.1184 29.7712 46.1184 30.1616C46.1184 30.552 45.9883 30.8923 45.738 31.2427C45.4677 31.6231 45.1574 31.8133 44.797 31.8133C44.4366 31.8133 44.1063 31.6331 43.826 31.2627C43.5657 30.9124 43.4256 30.552 43.4256 30.1816H43.4356ZM44.8671 33.0446C45.2575 33.0446 45.5879 33.3249 45.8682 33.8754C46.0984 34.3359 46.2085 34.7864 46.2085 35.1968V42.024C46.2085 42.4945 46.0884 42.9149 45.8481 43.2753C45.5778 43.6957 45.2175 43.8959 44.767 43.8959C44.3165 43.8959 43.9361 43.6857 43.6658 43.2753C43.4256 42.9149 43.3055 42.4945 43.3055 42.024V35.327C43.3055 34.8765 43.4556 34.406 43.7459 33.8955C44.0763 33.3249 44.4467 33.0346 44.8671 33.0346V33.0446ZM34.7465 38.5704C34.7465 36.9687 35.1469 35.6373 35.9478 34.5662C36.8387 33.3649 38.05 32.7643 39.6016 32.7643C40.1221 32.7643 40.5926 32.8444 41.003 33.0146C41.5536 33.2448 41.8339 33.5951 41.8339 34.0556C41.8339 34.396 41.6337 34.6663 41.2333 34.8565C41.0431 34.9466 40.6227 35.0767 39.992 35.2269C39.4414 35.357 39.071 35.4972 38.8808 35.6473C38.2402 36.1478 37.9298 37.1188 37.9298 38.5804C37.9298 39.3111 38.04 39.9518 38.2602 40.4924C38.5605 41.2432 39.031 41.6436 39.6717 41.7036L41.4035 41.8538C41.5937 41.8638 41.7638 41.9539 41.904 42.1141C42.0441 42.2742 42.1242 42.4544 42.1242 42.6446C42.1242 43.1852 41.7839 43.5756 41.1232 43.8259C40.6627 44.006 40.1021 44.0861 39.4614 44.0861C37.9198 44.0861 36.7386 43.5355 35.9077 42.4444C35.1469 41.4534 34.7665 40.162 34.7665 38.5804L34.7465 38.5704ZM27.1786 38.8106C27.1786 40.9128 27.7492 41.9539 28.9004 41.9539C30.0516 41.9539 30.6422 40.8728 30.6422 38.7105C30.6422 36.5483 30.0716 35.5972 28.9304 35.5972C27.7892 35.5972 27.1786 36.6684 27.1786 38.8006V38.8106ZM24.0053 38.7806C24.0053 37.2289 24.4157 35.9276 25.2365 34.8765C26.1275 33.7353 27.3387 33.1647 28.8603 33.1647C30.3819 33.1647 31.6633 33.7153 32.5642 34.8164C33.4051 35.8475 33.8256 37.1589 33.8256 38.7606C33.8256 40.3622 33.4051 41.6936 32.5742 42.7247C31.6733 43.8359 30.442 44.3965 28.8804 44.3965C27.3187 44.3965 26.1175 43.8359 25.2266 42.7047C24.4157 41.6736 24.0053 40.3622 24.0053 38.7706V38.7806ZM15.106 42.8949C15.106 42.3643 15.4463 42.1041 16.117 42.1041C16.3272 42.1041 16.6276 42.1341 17.018 42.1741C17.4084 42.2242 17.7187 42.2542 17.9189 42.2542H18.4795C19.1101 42.104 19.4205 41.7737 19.4205 41.2432C19.4205 40.7126 19.01 40.3022 18.1792 39.9518C16.8278 39.3912 16.0569 39.0409 15.8868 38.9307C15.0659 38.3702 14.6555 37.5693 14.6555 36.5282C14.6555 35.4871 15.0859 34.6062 15.9569 33.9655C16.7377 33.3849 17.6787 33.0946 18.7798 33.0946C19.4305 33.0946 20.0211 33.1747 20.5216 33.3349C21.2424 33.5651 21.6027 33.9255 21.6027 34.416C21.6027 34.8365 21.3525 35.1168 20.852 35.2369C20.3915 35.307 19.921 35.387 19.4505 35.4571C18.95 35.5772 18.6997 35.8375 18.6997 36.2379C18.6997 36.6383 19.0801 37.0388 19.8309 37.4192C20.9921 38.0098 21.6828 38.4002 21.9131 38.5804C22.6538 39.171 23.0343 39.9218 23.0343 40.8427C23.0343 41.9639 22.5337 42.8649 21.5327 43.5256C20.6618 44.1062 19.6307 44.4065 18.4695 44.4065C17.6887 44.4065 16.9979 44.3164 16.4073 44.1362C15.5464 43.8759 15.106 43.4655 15.106 42.8949Z" fill="#FBFAF6"/>
<path fill-rule="evenodd" clip-rule="evenodd" d="M59.0619 18.3292C59.0619 18.3292 59.4323 18.0189 58.6315 17.6485C57.8306 17.2781 57.7706 16.9277 57.4302 17.5884C57.0798 18.2491 57.1399 18.6295 57.1599 18.8097C57.1699 18.9899 57.8206 19.12 58.2411 19.13C58.6615 19.13 59.0719 18.3292 59.0719 18.3292M72.9664 63.1461C73.0265 63.3563 74.5281 63.076 74.6082 62.9959C74.9986 62.5855 74.8684 60.0328 74.5681 59.282C74.0576 58.0007 73.1366 56.2689 73.1366 56.2689C73.1366 56.2689 73.2868 56.8595 73.2067 57.8005C73.1266 58.7314 73.0065 59.0918 72.7262 59.5723C72.556 60.0929 72.0055 60.2631 72.9565 63.1561L72.9664 63.1461ZM87.2114 57.9306C87.2114 57.9306 86.7709 58.301 87.1413 60.2831C87.3515 61.3842 87.7119 63.3162 87.802 64.4374C88.0022 63.7067 88.5828 63.4764 89.4938 62.8357C89.9542 62.5054 89.8241 61.124 89.6739 60.0929C89.5238 59.0618 88.5528 59.5723 87.2114 57.9206V57.9306ZM64.5977 14.0747C63.4565 14.4351 62.8659 15.7465 63.2563 17.0078C63.6567 18.2691 64.898 19.0099 66.0292 18.6495C67.1604 18.2891 67.761 16.9778 67.3706 15.7165C66.9702 14.4551 65.7289 13.7143 64.5977 14.0747ZM64.8379 14.8255C64.3875 14.9657 64.0571 15.336 63.917 15.7965C63.957 16.227 64.2473 16.5473 64.5677 16.5273C64.898 16.5073 65.1483 16.1269 65.1182 15.6764C65.1182 15.6063 65.0982 15.5263 65.0782 15.4662C65.4686 15.6364 65.7689 16.0568 65.799 16.5573C65.839 17.228 65.4186 17.7986 64.848 17.8587C65.1383 17.9788 65.4686 18.0089 65.789 17.9088C66.5598 17.6685 66.9602 16.7776 66.6899 15.9267C66.4196 15.0758 65.5887 14.5752 64.8179 14.8155L64.8379 14.8255ZM72.6261 14.7454C73.3268 14.345 75.1387 13.6343 74.9986 11.5821C74.6983 7.32768 71.9955 6.00629 71.2347 5.97626C70.0334 5.94622 73.2067 10.8113 71.4949 13.6743C71.2947 14.0147 71.4649 13.7444 71.4449 13.7744C70.9844 13.4741 70.4839 13.3139 69.4828 13.1738C70.584 11.1317 69.2926 8.04842 67.1804 7.25759C65.9091 6.77709 65.5287 6.77709 64.9581 6.94727C64.4375 7.10744 65.9992 8.54893 66.9101 9.52996C67.4907 10.1606 67.8011 10.8914 67.9712 11.3819C68.1414 11.8824 68.3016 12.5231 68.3316 12.8534C68.3617 13.1738 68.3516 12.9636 68.3716 13.0036C66.7299 12.6833 66.0592 12.403 64.898 12.5431C64.5677 12.5832 63.5766 12.5531 63.4265 12.6032C62.966 12.7333 63.2363 13.354 62.946 13.8445C62.3854 14.8155 61.1041 14.4051 59.5624 14.9056C58.7816 15.1559 57.6004 15.7865 57.4602 15.7765C56.4091 15.7064 55.9787 16.247 55.6984 16.6975L56.1188 16.8576C56.1188 16.8576 55.7184 18.3392 55.3881 18.149C55.1278 17.9988 55.0577 17.7486 55.0477 17.3281C54.7474 17.7285 54.8975 17.7286 54.4771 18.8698C54.0567 20.0109 54.5472 21.5425 55.5583 22.013C58.2611 23.2643 59.9028 21.6226 62.1852 22.7138C64.5376 23.8349 64.9281 24.3254 66.3295 23.7649C66.78 23.5847 67.2305 23.4445 66.9502 24.2754C66.3996 25.9271 63.887 31.8734 65.2985 30.6621C67.2505 29.0003 63.1762 38.1299 64.3875 37.1589C65.869 35.9776 64.4175 44.4065 65.1983 43.5355C66.2995 42.2842 65.1182 49.4818 65.9291 48.1804C66.77 46.809 66.4697 49.692 67.0102 51.9844C67.3206 53.3158 67.9612 54.8574 69.1224 55.8084C69.3226 59.0017 70.6841 61.1039 69.9233 62.4053C69.7431 62.7056 69.1425 62.8057 68.6419 63.0159C67.6109 63.4464 67.2605 64.007 67.2605 65.3684C67.2705 67.5707 71.5149 66.6898 71.595 67.2504C71.6951 67.5607 71.8953 67.9911 72.1856 68.0712C73.7473 68.5317 73.7773 68.7119 77.5313 67.9311C78.202 67.7909 79.223 66.7799 78.8727 65.1081C78.5223 63.4464 77.6614 63.5165 78.0117 61.4042C78.262 59.8726 78.1018 59.6624 79.263 58.6814C79.7636 58.2509 79.5534 57.1898 79.7736 56.4591C80.194 55.0376 80.6545 57.38 82.9169 57.4301C83.4074 57.4401 83.938 58.5713 84.3484 59.8026C85.1092 62.0849 83.4675 62.7156 83.4675 62.7156C83.4675 62.7156 82.5165 62.8458 82.2462 64.1772C81.8357 66.1592 82.6366 66.2493 83.3073 66.3795C83.968 66.4996 85.7498 66.6297 86.3405 66.3494C87.3215 65.8689 87.4416 66.0391 87.5117 66.3895C87.6418 67.0502 87.4916 68.3615 89.1734 68.4917C90.9953 68.6218 93.3578 68.2214 93.6581 67.7008C93.7983 67.4706 94.6992 65.7888 93.9785 64.4674C93.2477 63.1461 92.7972 63.126 92.7972 60.7135C92.7972 58.301 93.3178 58.3411 93.2577 56.2589C93.2076 54.1767 93.1175 53.6561 93.4079 53.2357C93.6982 52.8153 93.7482 53.4559 94.2487 53.7462C94.7492 54.0365 95.0596 53.8563 94.9395 52.0144C94.8193 50.1725 95.5901 48.0303 95.2398 46.2784C94.8894 44.5366 94.9695 44.2663 95.8304 45.1773C96.2208 45.5877 96.5912 45.4275 96.7313 45.3775C96.9015 45.3174 96.441 45.0872 96.3709 43.996C96.2408 41.994 95.7803 40.132 93.6281 39.0709C91.4658 38.0098 90.2746 37.4392 87.4516 37.229C84.4585 36.9987 84.8889 37.3691 82.096 36.8486C79.3131 36.328 78.1018 36.5683 77.3811 36.2079C76.6303 35.8375 76.36 34.2959 75.8695 32.7343C75.1888 30.602 74.458 28.3897 74.9586 28.7701C76.0797 30.1615 74.6782 25.9171 75.1587 23.6147C75.5592 21.7427 75.0486 21.1722 75.5692 21.7828C76.0397 22.3234 75.429 17.5083 73.0065 15.5563C71.9554 14.7054 72.8363 14.8956 72.6461 14.7354L72.6261 14.7454Z" fill="#FBFAF6"/>
<path d="M54.4769 57.1097C54.4769 57.4701 54.6071 57.7805 54.8573 58.0307C55.1076 58.281 55.4179 58.4111 55.7783 58.4111C56.5591 58.4111 56.9495 57.9206 56.9495 56.9396C56.9495 56.1287 56.5791 55.7183 55.8283 55.7183C55.4279 55.7183 55.0976 55.8484 54.8473 56.1087C54.5971 56.369 54.4769 56.6993 54.4769 57.1097ZM49.7019 57.33C49.7019 56.2689 50.0123 55.2979 50.6529 54.447C51.2436 53.6261 52.0644 52.9855 53.0855 52.535C53.7161 52.3748 54.3468 52.2046 54.9875 52.0545C55.8484 51.7842 56.2788 51.3638 56.2788 50.7831C56.2788 50.3327 56.0085 50.0324 55.468 49.8722C55.4079 49.8622 55.2077 49.8521 54.8673 49.8521C54.6571 49.8521 54.3368 49.8722 53.9163 49.9122C53.4959 49.9523 53.1756 49.9823 52.9654 49.9823C52.5049 49.9823 52.1145 49.8822 51.7841 49.682C51.3837 49.4417 51.1835 49.0914 51.1835 48.6409C51.1835 47.7399 51.8842 47.0692 53.2857 46.6388C54.2467 46.3385 55.2878 46.1883 56.419 46.1883C58.3009 46.1883 59.6523 46.7189 60.4532 47.77C61.0738 48.5908 61.4242 49.8722 61.5143 51.594C61.5544 53.1256 61.5844 54.6672 61.6044 56.2088C61.6945 56.9195 61.7846 57.7104 61.8847 58.5913C61.9047 58.9116 61.9147 59.0918 61.9147 59.1219C61.9147 59.9627 61.6945 60.5634 61.244 60.9137C60.8936 61.184 60.3531 61.3342 59.6223 61.3742H57.6302C57.2799 61.3942 56.7293 61.4743 55.9885 61.6345C55.2878 61.7847 54.7372 61.8547 54.3468 61.8547C53.0354 61.8547 51.9243 61.4343 51.0333 60.5934C50.1424 59.7425 49.6919 58.6714 49.6919 57.35L49.7019 57.33ZM28.6799 58.9116C28.6599 56.5992 28.6399 53.8964 28.5999 50.7831V50.3127C28.5999 48.4007 29.3006 47.3696 30.6921 47.2194C31.2426 47.2194 32.1035 47.1493 33.2648 47.0392C34.3759 46.9291 35.2268 46.879 35.8274 46.879C36.2979 46.879 36.9786 46.9892 37.8596 47.1994C38.7505 47.4096 39.4312 47.5197 39.9017 47.5197C40.3722 47.5197 41.0629 47.3996 41.9438 47.1594C42.8247 46.9191 43.5055 46.799 43.986 46.799C45.2773 46.799 46.2984 47.3295 47.0492 48.4006C47.7099 49.3516 48.0302 50.5028 48.0302 51.8643V58.9116C48.0302 59.5723 47.88 60.1429 47.5697 60.6434C47.2193 61.214 46.7489 61.5044 46.1382 61.5044C45.5276 61.5044 45.0771 61.2241 44.7067 60.6835C44.3664 60.193 44.1962 59.6324 44.1962 59.0217V53.1556C44.1962 52.565 44.026 52.0044 43.6856 51.4739C43.3052 50.8732 42.8247 50.5729 42.2642 50.5729C41.7036 50.5729 41.193 50.9032 40.7826 51.574C40.4322 52.1546 40.252 52.7452 40.252 53.3558V59.0118C40.252 59.5924 40.0819 60.1429 39.7415 60.6535C39.3611 61.214 38.9006 61.4943 38.3601 61.4943C37.8195 61.4943 37.339 61.214 36.9486 60.6535C36.6082 60.1429 36.4381 59.5924 36.4381 59.0118V53.0555C36.4381 52.4449 36.2779 51.8943 35.9476 51.4038C35.5872 50.8532 35.1267 50.5729 34.5561 50.5729C33.9655 50.5729 33.4549 50.8732 33.0545 51.4839C32.6841 52.0344 32.4939 52.6251 32.4939 53.2457V59.0118C32.4939 59.6224 32.3238 60.183 31.9834 60.6735C31.613 61.2241 31.1325 61.4943 30.5519 61.4943C29.3907 61.4943 28.76 60.6334 28.6599 58.9116H28.6799ZM19.8207 57.1097C19.8207 57.4701 19.9508 57.7805 20.2011 58.0307C20.4513 58.281 20.7617 58.4111 21.122 58.4111C21.9029 58.4111 22.2933 57.9206 22.2933 56.9396C22.2933 56.1287 21.9229 55.7183 21.1721 55.7183C20.7717 55.7183 20.4413 55.8484 20.191 56.1087C19.9408 56.369 19.8207 56.6993 19.8207 57.1097ZM15.0557 57.33C15.0557 56.2689 15.366 55.2979 16.0067 54.447C16.5973 53.6261 17.4181 52.9855 18.4392 52.535C19.0699 52.3748 19.7006 52.2046 20.3412 52.0545C21.2021 51.7842 21.6326 51.3638 21.6326 50.7831C21.6326 50.3327 21.3623 50.0324 20.8217 49.8722C20.7616 49.8622 20.5615 49.8521 20.2211 49.8521C20.0109 49.8521 19.6905 49.8722 19.2701 49.9122C18.8497 49.9523 18.5293 49.9823 18.3191 49.9823C17.8586 49.9823 17.4682 49.8822 17.1379 49.682C16.7374 49.4417 16.5372 49.0914 16.5372 48.6409C16.5372 47.7399 17.238 47.0692 18.6394 46.6388C19.6004 46.3385 20.6415 46.1883 21.7727 46.1883C23.6547 46.1883 25.0061 46.7189 25.8069 47.77C26.4276 48.5908 26.778 49.8722 26.868 51.594C26.9081 53.1256 26.9381 54.6672 26.9581 56.2088C27.0482 56.9195 27.1383 57.7104 27.2384 58.5913C27.2585 58.9116 27.2685 59.0918 27.2685 59.1219C27.2685 59.9627 27.0482 60.5634 26.5978 60.9137C26.2474 61.184 25.7068 61.3342 24.9761 61.3742H22.984C22.6336 61.3942 22.0831 61.4743 21.3423 61.6345C20.6415 61.7847 20.091 61.8547 19.7005 61.8547C18.3892 61.8547 17.278 61.4343 16.3871 60.5934C15.4961 59.7425 15.0457 58.6714 15.0457 57.35L15.0557 57.33ZM10.7912 40.8828C11.3718 40.8828 11.8423 41.1531 12.1927 41.7036C12.513 42.1942 12.6732 42.7647 12.6732 43.3854V56.429C12.6732 56.9196 12.8434 57.6103 13.1837 58.4912C13.5241 59.3721 13.6943 60.0528 13.6943 60.5434C13.6943 61.4843 13.1437 61.9448 12.0225 61.9448C10.9014 61.9448 10.0304 61.4142 9.42979 60.3631C8.92926 59.4922 8.679 58.4412 8.679 57.1999V43.1852C8.679 42.5545 8.87923 42.014 9.28966 41.5535C9.70009 41.103 10.2006 40.8828 10.7912 40.8828Z" fill="#FBFAF6"/>
</g>
</g>
</svg>
