<svg width="408" height="89" viewBox="0 0 408 89" fill="none" xmlns="http://www.w3.org/2000/svg">
<mask id="path-1-outside-1_2136_860" maskUnits="userSpaceOnUse" x="-0.933133" y="-0.520307" width="409.226" height="89.0492" fill="black">
<rect fill="white" x="-0.933133" y="-0.520307" width="409.226" height="89.0492"/>
<path d="M71.3597 2.68146V51.9087C71.3597 60.4734 70.239 67.3572 67.9978 72.5601C65.8366 77.6829 62.2746 81.405 57.3119 83.7263C52.3492 86.0476 45.7055 87.2082 37.3809 87.2082C28.4159 87.2082 21.252 86.0476 15.889 83.7263C10.6061 81.405 6.80397 77.6829 4.48269 72.5601C2.1614 67.3572 1.00076 60.4734 1.00076 51.9087L1.00076 2.68146L23.5732 2.68146L23.5732 51.9087C23.5732 56.6313 23.9334 60.3133 24.6538 62.9548C25.3742 65.5962 26.6549 67.4373 28.496 68.4778C30.417 69.5184 32.9784 70.0387 36.1802 70.0387C39.462 70.0387 42.0234 69.5184 43.8645 68.4778C45.7055 67.4373 46.9862 65.5962 47.7066 62.9548C48.427 60.3133 48.7872 56.6313 48.7872 51.9087L48.7872 2.68146L71.3597 2.68146ZM114.738 1.00053C118.981 1.08057 123.663 1.36073 128.786 1.841C133.909 2.32126 138.872 3.32181 143.674 4.84265L142.234 19.4908C138.712 19.4107 134.389 19.3307 129.266 19.2506C124.224 19.1706 119.261 19.1306 114.378 19.1306C112.537 19.1306 110.976 19.2106 109.696 19.3707C108.495 19.4507 107.494 19.6909 106.694 20.0911C105.973 20.4113 105.453 20.9316 105.133 21.652C104.813 22.2923 104.653 23.2128 104.653 24.4135C104.653 26.3345 105.213 27.8154 106.334 28.8559C107.534 29.8165 109.616 30.817 112.577 31.8576L128.066 37.6208C134.789 40.2622 139.472 43.5441 142.113 47.4662C144.835 51.3083 146.196 56.3111 146.196 62.4745C146.196 67.1171 145.635 71.0393 144.515 74.241C143.394 77.4428 141.553 79.9642 138.992 81.8052C136.51 83.6462 133.189 85.007 129.026 85.8875C124.944 86.768 119.861 87.2082 113.778 87.2082C110.976 87.2082 106.854 87.0081 101.411 86.6079C96.048 86.2076 89.9646 85.1671 83.1609 83.4861L84.4816 67.6374C89.2843 67.7174 93.5266 67.8375 97.2086 67.9976C100.971 68.0776 104.213 68.1577 106.934 68.2377C109.736 68.2377 111.937 68.2377 113.538 68.2377C116.259 68.2377 118.34 68.1176 119.781 67.8775C121.222 67.5573 122.222 67.037 122.783 66.3166C123.343 65.5162 123.623 64.3956 123.623 62.9548C123.623 61.594 123.423 60.5134 123.023 59.713C122.623 58.9126 121.902 58.2322 120.862 57.6719C119.901 57.1116 118.58 56.5512 116.9 55.9909L100.33 49.3873C93.7667 46.6658 89.1242 43.424 86.4027 39.6619C83.6812 35.8998 82.3204 30.9771 82.3204 24.8937C82.3204 20.0911 82.9207 16.1689 84.1214 13.1272C85.3221 10.0856 87.1631 7.68422 89.6445 5.92325C92.2059 4.16227 95.5677 2.92159 99.73 2.2012C103.892 1.40075 108.895 1.00053 114.738 1.00053ZM192.377 25.0138V36.18L151.074 52.2689V41.1027L192.377 25.0138ZM179.53 2.68146V62.3545C179.53 63.9553 180.01 65.236 180.971 66.1966C182.011 67.0771 183.452 67.5173 185.293 67.5173H213.509L214.589 84.4467C208.666 85.1671 202.383 85.5673 195.739 85.6473C189.095 85.8074 182.532 85.8875 176.048 85.8875C170.045 85.8875 165.362 84.2065 162 80.8447C158.639 77.4828 156.958 73.1204 156.958 67.7574V2.68146L179.53 2.68146ZM291.56 2.68146V51.9087C291.56 60.4734 290.439 67.3572 288.198 72.5601C286.036 77.6829 282.475 81.405 277.512 83.7263C272.549 86.0476 265.905 87.2082 257.581 87.2082C248.616 87.2082 241.452 86.0476 236.089 83.7263C230.806 81.405 227.004 77.6829 224.683 72.5601C222.361 67.3572 221.201 60.4734 221.201 51.9087V2.68146L243.773 2.68146V51.9087C243.773 56.6313 244.133 60.3133 244.854 62.9548C245.574 65.5962 246.855 67.4373 248.696 68.4778C250.617 69.5184 253.178 70.0387 256.38 70.0387C259.662 70.0387 262.223 69.5184 264.064 68.4778C265.905 67.4373 267.186 65.5962 267.906 62.9548C268.627 60.3133 268.987 56.6313 268.987 51.9087V2.68146L291.56 2.68146ZM340.821 1.00053C344.904 1.00053 348.506 1.12059 351.627 1.36073C354.829 1.60086 357.791 1.96106 360.512 2.44133C363.314 2.84155 366.075 3.44188 368.797 4.24232L367.116 20.5714C364.234 20.4913 361.433 20.4513 358.711 20.4513C355.99 20.3712 353.228 20.3312 350.427 20.3312C347.625 20.2512 344.503 20.2112 341.062 20.2112C338.26 20.2112 335.899 20.5313 333.978 21.1717C332.137 21.812 330.656 23.0127 329.535 24.7737C328.495 26.5346 327.734 29.016 327.254 32.2178C326.774 35.3395 326.534 39.3417 326.534 44.2244C326.534 50.3878 326.894 55.1905 327.614 58.6324C328.415 62.0743 329.695 64.4756 331.456 65.8364C333.217 67.1971 335.659 67.8775 338.78 67.8775C340.861 67.8775 342.743 67.7574 344.423 67.5173C346.184 67.1971 347.745 66.7969 349.106 66.3166C350.547 65.7563 351.788 65.2761 352.828 64.8759L355.109 74.7213C354.069 76.3222 352.388 78.1232 350.067 80.1243C347.825 82.0453 345.024 83.7263 341.662 85.1671C338.3 86.5278 334.418 87.2082 330.015 87.2082C323.772 87.2082 318.609 85.7674 314.527 82.8858C310.525 79.9242 307.563 75.2816 305.642 68.9581C303.801 62.6346 302.88 54.35 302.88 44.1044C302.88 33.3784 304.081 24.8937 306.482 18.6503C308.964 12.3268 312.966 7.80429 318.489 5.08279C324.092 2.36128 331.536 1.00053 340.821 1.00053ZM372.039 37.8609V85.5273H355.47L352.468 72.8002L350.427 68.838V37.8609L372.039 37.8609ZM407 2.68146V85.5273H384.667V2.68146L407 2.68146Z"/>
</mask>
<path d="M71.3597 2.68146H72.3602V1.68091H71.3597V2.68146ZM67.9978 72.5601L67.0789 72.1642L67.0759 72.1712L67.9978 72.5601ZM57.3119 83.7263L57.7358 84.6326V84.6326L57.3119 83.7263ZM15.889 83.7263L15.4865 84.6423L15.4916 84.6445L15.889 83.7263ZM4.48269 72.5601L3.56894 72.9678L3.57133 72.9731L4.48269 72.5601ZM1.00076 2.68146V1.68091H0.000206108V2.68146H1.00076ZM23.5732 2.68146H24.5738V1.68091H23.5732V2.68146ZM24.6538 62.9548L23.6885 63.2181V63.2181L24.6538 62.9548ZM28.496 68.4778L28.0036 69.3489L28.0115 69.3533L28.0194 69.3576L28.496 68.4778ZM47.7066 62.9548L48.6719 63.2181V63.2181L47.7066 62.9548ZM48.7872 2.68146V1.68091H47.7866V2.68146H48.7872ZM71.3597 2.68146H70.3591V51.9087H71.3597H72.3602V2.68146H71.3597ZM71.3597 51.9087H70.3591C70.3591 60.4003 69.246 67.1336 67.0789 72.1643L67.9978 72.5601L68.9167 72.9559C71.2321 67.5809 72.3602 60.5465 72.3602 51.9087H71.3597ZM67.9978 72.5601L67.0759 72.1712C65.0094 77.0696 61.6228 80.6053 56.888 82.82L57.3119 83.7263L57.7358 84.6326C62.9265 82.2047 66.6638 78.2962 68.9197 72.949L67.9978 72.5601ZM57.3119 83.7263L56.888 82.82C52.1088 85.0554 45.628 86.2076 37.3809 86.2076V87.2082V88.2088C45.783 88.2088 52.5895 87.0397 57.7358 84.6326L57.3119 83.7263ZM37.3809 87.2082V86.2076C28.487 86.2076 21.4751 85.0539 16.2864 82.808L15.889 83.7263L15.4916 84.6445C21.0288 87.0412 28.3449 88.2088 37.3809 88.2088V87.2082ZM15.889 83.7263L16.2915 82.8102C11.2279 80.5854 7.61064 77.0389 5.39404 72.1471L4.48269 72.5601L3.57133 72.9731C5.9973 78.3269 9.98421 82.2246 15.4865 84.6423L15.889 83.7263ZM4.48269 72.5601L5.39642 72.1524C3.15376 67.1258 2.00131 60.3971 2.00131 51.9087H1.00076H0.000206108C0.000206108 60.5497 1.16904 67.5887 3.56895 72.9678L4.48269 72.5601ZM1.00076 51.9087H2.00131L2.00131 2.68146H1.00076H0.000206108L0.000206108 51.9087H1.00076ZM1.00076 2.68146V3.68201L23.5732 3.68201V2.68146V1.68091L1.00076 1.68091V2.68146ZM23.5732 2.68146H22.5727L22.5727 51.9087H23.5732H24.5738L24.5738 2.68146H23.5732ZM23.5732 51.9087H22.5727C22.5727 56.6659 22.9338 60.4507 23.6885 63.2181L24.6538 62.9548L25.6191 62.6915C24.9331 60.1759 24.5738 56.5967 24.5738 51.9087H23.5732ZM24.6538 62.9548L23.6885 63.2181C24.4576 66.0377 25.8672 68.1413 28.0036 69.3489L28.496 68.4778L28.9883 67.6068C27.4427 66.7332 26.2909 65.1548 25.6191 62.6915L24.6538 62.9548ZM28.496 68.4778L28.0194 69.3576C30.1392 70.5058 32.884 71.0393 36.1802 71.0393V70.0387V69.0381C33.0729 69.0381 30.6949 68.531 28.9725 67.5981L28.496 68.4778ZM36.1802 70.0387V71.0393C39.5477 71.0393 42.3047 70.5087 44.3568 69.3489L43.8645 68.4778L43.3721 67.6068C41.7421 68.5281 39.3763 69.0381 36.1802 69.0381V70.0387ZM43.8645 68.4778L44.3568 69.3489C46.4932 68.1413 47.9029 66.0377 48.6719 63.2181L47.7066 62.9548L46.7413 62.6915C46.0695 65.1548 44.9177 66.7332 43.3721 67.6068L43.8645 68.4778ZM47.7066 62.9548L48.6719 63.2181C49.4266 60.4507 49.7877 56.6659 49.7877 51.9087H48.7872H47.7866C47.7866 56.5967 47.4274 60.1759 46.7413 62.6915L47.7066 62.9548ZM48.7872 51.9087H49.7877L49.7877 2.68146H48.7872H47.7866L47.7866 51.9087H48.7872ZM48.7872 2.68146V3.68201L71.3597 3.68201V2.68146V1.68091L48.7872 1.68091V2.68146ZM114.738 1.00053L114.757 0.000152672L114.748 -2.29008e-05H114.738V1.00053ZM128.786 1.841L128.693 2.83718V2.83718L128.786 1.841ZM143.674 4.84265L144.67 4.9406L144.749 4.13359L143.976 3.88878L143.674 4.84265ZM142.234 19.4908L142.211 20.4911L143.138 20.5121L143.229 19.5887L142.234 19.4908ZM129.266 19.2506L129.25 20.251L129.251 20.251L129.266 19.2506ZM109.696 19.3707L109.762 20.369L109.791 20.3671L109.82 20.3635L109.696 19.3707ZM106.694 20.0911L107.1 21.0054L107.121 20.9962L107.141 20.986L106.694 20.0911ZM105.133 21.652L106.028 22.0994L106.038 22.0791L106.047 22.0583L105.133 21.652ZM106.334 28.8559L105.653 29.5891L105.68 29.6142L105.709 29.6372L106.334 28.8559ZM112.577 31.8576L112.926 30.9199L112.917 30.9166L112.909 30.9136L112.577 31.8576ZM128.066 37.6208L128.432 36.6895L128.423 36.6862L128.415 36.683L128.066 37.6208ZM142.113 47.4662L141.284 48.0251L141.29 48.0349L141.297 48.0446L142.113 47.4662ZM144.515 74.241L143.57 73.9105V73.9105L144.515 74.241ZM138.992 81.8052L138.408 80.9927L138.402 80.9972L138.396 81.0017L138.992 81.8052ZM129.026 85.8875L128.819 84.9086L128.815 84.9094L129.026 85.8875ZM101.411 86.6079L101.337 87.6056L101.338 87.6057L101.411 86.6079ZM83.1609 83.4861L82.1638 83.403L82.093 84.2529L82.9209 84.4575L83.1609 83.4861ZM84.4816 67.6374L84.4983 66.637L83.5623 66.6214L83.4845 67.5543L84.4816 67.6374ZM97.2086 67.9976L97.1652 68.9972L97.1763 68.9977L97.1874 68.9979L97.2086 67.9976ZM106.934 68.2377L106.905 69.2378L106.919 69.2383H106.934V68.2377ZM119.781 67.8775L119.946 68.8644L119.972 68.86L119.998 68.8542L119.781 67.8775ZM122.783 66.3167L123.573 66.9309L123.588 66.911L123.602 66.8904L122.783 66.3167ZM123.023 59.713L123.918 59.2655H123.918L123.023 59.713ZM120.862 57.6719L120.358 58.5361L120.372 58.5447L120.387 58.5528L120.862 57.6719ZM116.9 55.9909L116.529 56.9204L116.556 56.931L116.583 56.9401L116.9 55.9909ZM100.33 49.3873L99.9471 50.3116L99.9599 50.3167L100.33 49.3873ZM86.4027 39.6619L87.2133 39.0755V39.0755L86.4027 39.6619ZM84.1214 13.1272L83.1907 12.7599V12.7599L84.1214 13.1272ZM89.6445 5.92325L89.0776 5.09875L89.0715 5.10298L89.0654 5.10729L89.6445 5.92325ZM99.73 2.2012L99.9007 3.1871L99.9099 3.18551L99.919 3.18374L99.73 2.2012ZM114.738 1.00053L114.719 2.0009C118.932 2.0804 123.59 2.35877 128.693 2.83718L128.786 1.841L128.879 0.844812C123.737 0.362688 119.029 0.080756 114.757 0.000152672L114.738 1.00053ZM128.786 1.841L128.693 2.83718C133.746 3.31094 138.639 4.29763 143.372 5.79652L143.674 4.84265L143.976 3.88878C139.104 2.346 134.072 1.33158 128.879 0.844812L128.786 1.841ZM143.674 4.84265L142.679 4.74471L141.238 19.3928L142.234 19.4908L143.229 19.5887L144.67 4.9406L143.674 4.84265ZM142.234 19.4908L142.256 18.4905C138.731 18.4103 134.406 18.3303 129.282 18.2502L129.266 19.2506L129.251 20.251C134.372 20.3311 138.692 20.4111 142.211 20.4911L142.234 19.4908ZM129.266 19.2506L129.282 18.2502C124.234 18.1701 119.266 18.13 114.378 18.13V19.1306V20.1311C119.255 20.1311 124.213 20.1711 129.25 20.251L129.266 19.2506ZM114.378 19.1306V18.13C112.512 18.13 110.907 18.211 109.571 18.3779L109.696 19.3707L109.82 20.3635C111.046 20.2102 112.563 20.1311 114.378 20.1311V19.1306ZM109.696 19.3707L109.629 18.3724C108.339 18.4584 107.199 18.7199 106.246 19.1962L106.694 20.0911L107.141 20.986C107.79 20.6619 108.651 20.4431 109.762 20.369L109.696 19.3707ZM106.694 20.0911L106.288 19.1768C105.341 19.5976 104.639 20.2988 104.219 21.2456L105.133 21.652L106.047 22.0583C106.267 21.5643 106.606 21.225 107.1 21.0054L106.694 20.0911ZM105.133 21.652L104.238 21.2045C103.817 22.0476 103.652 23.1495 103.652 24.4135H104.653H105.653C105.653 23.2761 105.809 22.537 106.028 22.0994L105.133 21.652ZM104.653 24.4135H103.652C103.652 26.5367 104.279 28.313 105.653 29.5891L106.334 28.8559L107.015 28.1227C106.148 27.3177 105.653 26.1324 105.653 24.4135H104.653ZM106.334 28.8559L105.709 29.6372C107.048 30.7089 109.264 31.7542 112.245 32.8016L112.577 31.8576L112.909 30.9136C109.967 29.8798 108.021 28.9241 106.959 28.0746L106.334 28.8559ZM112.577 31.8576L112.228 32.7953L127.717 38.5585L128.066 37.6208L128.415 36.683L112.926 30.9199L112.577 31.8576ZM128.066 37.6208L127.7 38.552C134.328 41.1559 138.801 44.3386 141.284 48.0251L142.113 47.4662L142.943 46.9073C140.143 42.7495 135.251 39.3686 128.432 36.6895L128.066 37.6208ZM142.113 47.4662L141.297 48.0446C143.867 51.6722 145.195 56.4547 145.195 62.4745H146.196H147.196C147.196 56.1675 145.803 50.9445 142.93 46.8879L142.113 47.4662ZM146.196 62.4745H145.195C145.195 67.0431 144.643 70.8461 143.57 73.9105L144.515 74.241L145.459 74.5716C146.628 71.2324 147.196 67.1911 147.196 62.4745H146.196ZM144.515 74.241L143.57 73.9105C142.512 76.9338 140.79 79.2808 138.408 80.9927L138.992 81.8052L139.576 82.6177C142.317 80.6476 144.276 77.9518 145.459 74.5716L144.515 74.241ZM138.992 81.8052L138.396 81.0017C136.065 82.731 132.891 84.0473 128.819 84.9086L129.026 85.8875L129.233 86.8664C133.487 85.9666 136.956 84.5614 139.588 82.6088L138.992 81.8052ZM129.026 85.8875L128.815 84.9094C124.826 85.7699 119.819 86.2076 113.778 86.2076V87.2082V88.2088C119.903 88.2088 125.062 87.7661 129.237 86.8655L129.026 85.8875ZM113.778 87.2082V86.2076C111.014 86.2076 106.921 86.0098 101.484 85.61L101.411 86.6079L101.338 87.6057C106.787 88.0064 110.939 88.2088 113.778 88.2088V87.2082ZM101.411 86.6079L101.485 85.6101C96.1921 85.2151 90.1656 84.1861 83.4008 82.5148L83.1609 83.4861L82.9209 84.4575C89.7637 86.1481 95.9039 87.2002 101.337 87.6056L101.411 86.6079ZM83.1609 83.4861L84.158 83.5692L85.4787 67.7205L84.4816 67.6374L83.4845 67.5543L82.1638 83.403L83.1609 83.4861ZM84.4816 67.6374L84.4649 68.6378C89.2612 68.7177 93.4943 68.8376 97.1652 68.9972L97.2086 67.9976L97.2521 66.998C93.5589 66.8374 89.3074 66.7171 84.4983 66.637L84.4816 67.6374ZM97.2086 67.9976L97.1874 68.9979C100.948 69.0779 104.187 69.1579 106.905 69.2378L106.934 68.2377L106.963 67.2376C104.238 67.1574 100.994 67.0773 97.2299 66.9972L97.2086 67.9976ZM106.934 68.2377V69.2383C106.939 69.2383 106.945 69.2383 106.95 69.2383C106.956 69.2383 106.961 69.2383 106.967 69.2383C106.972 69.2383 106.978 69.2383 106.983 69.2383C106.989 69.2383 106.994 69.2383 107 69.2383C107.005 69.2383 107.01 69.2383 107.016 69.2383C107.021 69.2383 107.027 69.2383 107.032 69.2383C107.038 69.2383 107.043 69.2383 107.049 69.2383C107.054 69.2383 107.059 69.2383 107.065 69.2383C107.07 69.2383 107.076 69.2383 107.081 69.2383C107.087 69.2383 107.092 69.2383 107.097 69.2383C107.103 69.2383 107.108 69.2383 107.114 69.2383C107.119 69.2383 107.125 69.2383 107.13 69.2383C107.135 69.2383 107.141 69.2383 107.146 69.2383C107.152 69.2383 107.157 69.2383 107.162 69.2383C107.168 69.2383 107.173 69.2383 107.179 69.2383C107.184 69.2383 107.19 69.2383 107.195 69.2383C107.2 69.2383 107.206 69.2383 107.211 69.2383C107.216 69.2383 107.222 69.2383 107.227 69.2383C107.233 69.2383 107.238 69.2383 107.243 69.2383C107.249 69.2383 107.254 69.2383 107.26 69.2383C107.265 69.2383 107.27 69.2383 107.276 69.2383C107.281 69.2383 107.286 69.2383 107.292 69.2383C107.297 69.2383 107.303 69.2383 107.308 69.2383C107.313 69.2383 107.319 69.2383 107.324 69.2383C107.329 69.2383 107.335 69.2383 107.34 69.2383C107.345 69.2383 107.351 69.2383 107.356 69.2383C107.362 69.2383 107.367 69.2383 107.372 69.2383C107.378 69.2383 107.383 69.2383 107.388 69.2383C107.394 69.2383 107.399 69.2383 107.404 69.2383C107.41 69.2383 107.415 69.2383 107.42 69.2383C107.426 69.2383 107.431 69.2383 107.436 69.2383C107.442 69.2383 107.447 69.2383 107.452 69.2383C107.458 69.2383 107.463 69.2383 107.468 69.2383C107.474 69.2383 107.479 69.2383 107.484 69.2383C107.49 69.2383 107.495 69.2383 107.5 69.2383C107.505 69.2383 107.511 69.2383 107.516 69.2383C107.521 69.2383 107.527 69.2383 107.532 69.2383C107.537 69.2383 107.543 69.2383 107.548 69.2383C107.553 69.2383 107.558 69.2383 107.564 69.2383C107.569 69.2383 107.574 69.2383 107.58 69.2383C107.585 69.2383 107.59 69.2383 107.596 69.2383C107.601 69.2383 107.606 69.2383 107.611 69.2383C107.617 69.2383 107.622 69.2383 107.627 69.2383C107.632 69.2383 107.638 69.2383 107.643 69.2383C107.648 69.2383 107.654 69.2383 107.659 69.2383C107.664 69.2383 107.669 69.2383 107.675 69.2383C107.68 69.2383 107.685 69.2383 107.69 69.2383C107.696 69.2383 107.701 69.2383 107.706 69.2383C107.711 69.2383 107.717 69.2383 107.722 69.2383C107.727 69.2383 107.732 69.2383 107.738 69.2383C107.743 69.2383 107.748 69.2383 107.753 69.2383C107.759 69.2383 107.764 69.2383 107.769 69.2383C107.774 69.2383 107.78 69.2383 107.785 69.2383C107.79 69.2383 107.795 69.2383 107.8 69.2383C107.806 69.2383 107.811 69.2383 107.816 69.2383C107.821 69.2383 107.827 69.2383 107.832 69.2383C107.837 69.2383 107.842 69.2383 107.847 69.2383C107.853 69.2383 107.858 69.2383 107.863 69.2383C107.868 69.2383 107.873 69.2383 107.879 69.2383C107.884 69.2383 107.889 69.2383 107.894 69.2383C107.899 69.2383 107.905 69.2383 107.91 69.2383C107.915 69.2383 107.92 69.2383 107.925 69.2383C107.931 69.2383 107.936 69.2383 107.941 69.2383C107.946 69.2383 107.951 69.2383 107.956 69.2383C107.962 69.2383 107.967 69.2383 107.972 69.2383C107.977 69.2383 107.982 69.2383 107.988 69.2383C107.993 69.2383 107.998 69.2383 108.003 69.2383C108.008 69.2383 108.013 69.2383 108.018 69.2383C108.024 69.2383 108.029 69.2383 108.034 69.2383C108.039 69.2383 108.044 69.2383 108.049 69.2383C108.055 69.2383 108.06 69.2383 108.065 69.2383C108.07 69.2383 108.075 69.2383 108.08 69.2383C108.085 69.2383 108.091 69.2383 108.096 69.2383C108.101 69.2383 108.106 69.2383 108.111 69.2383C108.116 69.2383 108.121 69.2383 108.127 69.2383C108.132 69.2383 108.137 69.2383 108.142 69.2383C108.147 69.2383 108.152 69.2383 108.157 69.2383C108.162 69.2383 108.168 69.2383 108.173 69.2383C108.178 69.2383 108.183 69.2383 108.188 69.2383C108.193 69.2383 108.198 69.2383 108.203 69.2383C108.208 69.2383 108.213 69.2383 108.219 69.2383C108.224 69.2383 108.229 69.2383 108.234 69.2383C108.239 69.2383 108.244 69.2383 108.249 69.2383C108.254 69.2383 108.259 69.2383 108.264 69.2383C108.27 69.2383 108.275 69.2383 108.28 69.2383C108.285 69.2383 108.29 69.2383 108.295 69.2383C108.3 69.2383 108.305 69.2383 108.31 69.2383C108.315 69.2383 108.32 69.2383 108.325 69.2383C108.33 69.2383 108.336 69.2383 108.341 69.2383C108.346 69.2383 108.351 69.2383 108.356 69.2383C108.361 69.2383 108.366 69.2383 108.371 69.2383C108.376 69.2383 108.381 69.2383 108.386 69.2383C108.391 69.2383 108.396 69.2383 108.401 69.2383C108.406 69.2383 108.411 69.2383 108.416 69.2383C108.421 69.2383 108.426 69.2383 108.431 69.2383C108.437 69.2383 108.442 69.2383 108.447 69.2383C108.452 69.2383 108.457 69.2383 108.462 69.2383C108.467 69.2383 108.472 69.2383 108.477 69.2383C108.482 69.2383 108.487 69.2383 108.492 69.2383C108.497 69.2383 108.502 69.2383 108.507 69.2383C108.512 69.2383 108.517 69.2383 108.522 69.2383C108.527 69.2383 108.532 69.2383 108.537 69.2383C108.542 69.2383 108.547 69.2383 108.552 69.2383C108.557 69.2383 108.562 69.2383 108.567 69.2383C108.572 69.2383 108.577 69.2383 108.582 69.2383C108.587 69.2383 108.592 69.2383 108.597 69.2383C108.602 69.2383 108.607 69.2383 108.612 69.2383C108.617 69.2383 108.622 69.2383 108.627 69.2383C108.632 69.2383 108.637 69.2383 108.642 69.2383C108.647 69.2383 108.652 69.2383 108.657 69.2383C108.662 69.2383 108.667 69.2383 108.671 69.2383C108.676 69.2383 108.681 69.2383 108.686 69.2383C108.691 69.2383 108.696 69.2383 108.701 69.2383C108.706 69.2383 108.711 69.2383 108.716 69.2383C108.721 69.2383 108.726 69.2383 108.731 69.2383C108.736 69.2383 108.741 69.2383 108.746 69.2383C108.751 69.2383 108.756 69.2383 108.761 69.2383C108.766 69.2383 108.77 69.2383 108.775 69.2383C108.78 69.2383 108.785 69.2383 108.79 69.2383C108.795 69.2383 108.8 69.2383 108.805 69.2383C108.81 69.2383 108.815 69.2383 108.82 69.2383C108.825 69.2383 108.83 69.2383 108.834 69.2383C108.839 69.2383 108.844 69.2383 108.849 69.2383C108.854 69.2383 108.859 69.2383 108.864 69.2383C108.869 69.2383 108.874 69.2383 108.879 69.2383C108.883 69.2383 108.888 69.2383 108.893 69.2383C108.898 69.2383 108.903 69.2383 108.908 69.2383C108.913 69.2383 108.918 69.2383 108.923 69.2383C108.928 69.2383 108.932 69.2383 108.937 69.2383C108.942 69.2383 108.947 69.2383 108.952 69.2383C108.957 69.2383 108.962 69.2383 108.967 69.2383C108.971 69.2383 108.976 69.2383 108.981 69.2383C108.986 69.2383 108.991 69.2383 108.996 69.2383C109.001 69.2383 109.005 69.2383 109.01 69.2383C109.015 69.2383 109.02 69.2383 109.025 69.2383C109.03 69.2383 109.035 69.2383 109.039 69.2383C109.044 69.2383 109.049 69.2383 109.054 69.2383C109.059 69.2383 109.064 69.2383 109.068 69.2383C109.073 69.2383 109.078 69.2383 109.083 69.2383C109.088 69.2383 109.093 69.2383 109.098 69.2383C109.102 69.2383 109.107 69.2383 109.112 69.2383C109.117 69.2383 109.122 69.2383 109.126 69.2383C109.131 69.2383 109.136 69.2383 109.141 69.2383C109.146 69.2383 109.151 69.2383 109.155 69.2383C109.16 69.2383 109.165 69.2383 109.17 69.2383C109.175 69.2383 109.179 69.2383 109.184 69.2383C109.189 69.2383 109.194 69.2383 109.199 69.2383C109.203 69.2383 109.208 69.2383 109.213 69.2383C109.218 69.2383 109.223 69.2383 109.227 69.2383C109.232 69.2383 109.237 69.2383 109.242 69.2383C109.247 69.2383 109.251 69.2383 109.256 69.2383C109.261 69.2383 109.266 69.2383 109.27 69.2383C109.275 69.2383 109.28 69.2383 109.285 69.2383C109.29 69.2383 109.294 69.2383 109.299 69.2383C109.304 69.2383 109.309 69.2383 109.313 69.2383C109.318 69.2383 109.323 69.2383 109.328 69.2383C109.332 69.2383 109.337 69.2383 109.342 69.2383C109.347 69.2383 109.351 69.2383 109.356 69.2383C109.361 69.2383 109.366 69.2383 109.37 69.2383C109.375 69.2383 109.38 69.2383 109.385 69.2383C109.389 69.2383 109.394 69.2383 109.399 69.2383C109.404 69.2383 109.408 69.2383 109.413 69.2383C109.418 69.2383 109.422 69.2383 109.427 69.2383C109.432 69.2383 109.437 69.2383 109.441 69.2383C109.446 69.2383 109.451 69.2383 109.456 69.2383C109.46 69.2383 109.465 69.2383 109.47 69.2383C109.474 69.2383 109.479 69.2383 109.484 69.2383C109.488 69.2383 109.493 69.2383 109.498 69.2383C109.503 69.2383 109.507 69.2383 109.512 69.2383C109.517 69.2383 109.521 69.2383 109.526 69.2383C109.531 69.2383 109.535 69.2383 109.54 69.2383C109.545 69.2383 109.55 69.2383 109.554 69.2383C109.559 69.2383 109.564 69.2383 109.568 69.2383C109.573 69.2383 109.578 69.2383 109.582 69.2383C109.587 69.2383 109.592 69.2383 109.596 69.2383C109.601 69.2383 109.606 69.2383 109.61 69.2383C109.615 69.2383 109.62 69.2383 109.624 69.2383C109.629 69.2383 109.634 69.2383 109.638 69.2383C109.643 69.2383 109.648 69.2383 109.652 69.2383C109.657 69.2383 109.662 69.2383 109.666 69.2383C109.671 69.2383 109.675 69.2383 109.68 69.2383C109.685 69.2383 109.689 69.2383 109.694 69.2383C109.699 69.2383 109.703 69.2383 109.708 69.2383C109.713 69.2383 109.717 69.2383 109.722 69.2383C109.726 69.2383 109.731 69.2383 109.736 69.2383C109.74 69.2383 109.745 69.2383 109.75 69.2383C109.754 69.2383 109.759 69.2383 109.763 69.2383C109.768 69.2383 109.773 69.2383 109.777 69.2383C109.782 69.2383 109.787 69.2383 109.791 69.2383C109.796 69.2383 109.8 69.2383 109.805 69.2383C109.81 69.2383 109.814 69.2383 109.819 69.2383C109.823 69.2383 109.828 69.2383 109.833 69.2383C109.837 69.2383 109.842 69.2383 109.846 69.2383C109.851 69.2383 109.855 69.2383 109.86 69.2383C109.865 69.2383 109.869 69.2383 109.874 69.2383C109.878 69.2383 109.883 69.2383 109.887 69.2383C109.892 69.2383 109.897 69.2383 109.901 69.2383C109.906 69.2383 109.91 69.2383 109.915 69.2383C109.919 69.2383 109.924 69.2383 109.929 69.2383C109.933 69.2383 109.938 69.2383 109.942 69.2383C109.947 69.2383 109.951 69.2383 109.956 69.2383C109.96 69.2383 109.965 69.2383 109.97 69.2383C109.974 69.2383 109.979 69.2383 109.983 69.2383C109.988 69.2383 109.992 69.2383 109.997 69.2383C110.001 69.2383 110.006 69.2383 110.01 69.2383C110.015 69.2383 110.02 69.2383 110.024 69.2383C110.029 69.2383 110.033 69.2383 110.038 69.2383C110.042 69.2383 110.047 69.2383 110.051 69.2383C110.056 69.2383 110.06 69.2383 110.065 69.2383C110.069 69.2383 110.074 69.2383 110.078 69.2383C110.083 69.2383 110.087 69.2383 110.092 69.2383C110.096 69.2383 110.101 69.2383 110.105 69.2383C110.11 69.2383 110.114 69.2383 110.119 69.2383C110.123 69.2383 110.128 69.2383 110.132 69.2383C110.137 69.2383 110.141 69.2383 110.146 69.2383C110.15 69.2383 110.155 69.2383 110.159 69.2383C110.164 69.2383 110.168 69.2383 110.173 69.2383C110.177 69.2383 110.182 69.2383 110.186 69.2383C110.191 69.2383 110.195 69.2383 110.199 69.2383C110.204 69.2383 110.208 69.2383 110.213 69.2383C110.217 69.2383 110.222 69.2383 110.226 69.2383C110.231 69.2383 110.235 69.2383 110.24 69.2383C110.244 69.2383 110.249 69.2383 110.253 69.2383C110.257 69.2383 110.262 69.2383 110.266 69.2383C110.271 69.2383 110.275 69.2383 110.28 69.2383C110.284 69.2383 110.289 69.2383 110.293 69.2383C110.297 69.2383 110.302 69.2383 110.306 69.2383C110.311 69.2383 110.315 69.2383 110.32 69.2383C110.324 69.2383 110.328 69.2383 110.333 69.2383C110.337 69.2383 110.342 69.2383 110.346 69.2383C110.351 69.2383 110.355 69.2383 110.359 69.2383C110.364 69.2383 110.368 69.2383 110.373 69.2383C110.377 69.2383 110.381 69.2383 110.386 69.2383C110.39 69.2383 110.395 69.2383 110.399 69.2383C110.403 69.2383 110.408 69.2383 110.412 69.2383C110.417 69.2383 110.421 69.2383 110.425 69.2383C110.43 69.2383 110.434 69.2383 110.439 69.2383C110.443 69.2383 110.447 69.2383 110.452 69.2383C110.456 69.2383 110.46 69.2383 110.465 69.2383C110.469 69.2383 110.474 69.2383 110.478 69.2383C110.482 69.2383 110.487 69.2383 110.491 69.2383C110.495 69.2383 110.5 69.2383 110.504 69.2383C110.509 69.2383 110.513 69.2383 110.517 69.2383C110.522 69.2383 110.526 69.2383 110.53 69.2383C110.535 69.2383 110.539 69.2383 110.543 69.2383C110.548 69.2383 110.552 69.2383 110.556 69.2383C110.561 69.2383 110.565 69.2383 110.569 69.2383C110.574 69.2383 110.578 69.2383 110.582 69.2383C110.587 69.2383 110.591 69.2383 110.595 69.2383C110.6 69.2383 110.604 69.2383 110.608 69.2383C110.613 69.2383 110.617 69.2383 110.621 69.2383C110.626 69.2383 110.63 69.2383 110.634 69.2383C110.639 69.2383 110.643 69.2383 110.647 69.2383C110.652 69.2383 110.656 69.2383 110.66 69.2383C110.665 69.2383 110.669 69.2383 110.673 69.2383C110.677 69.2383 110.682 69.2383 110.686 69.2383C110.69 69.2383 110.695 69.2383 110.699 69.2383C110.703 69.2383 110.708 69.2383 110.712 69.2383C110.716 69.2383 110.72 69.2383 110.725 69.2383C110.729 69.2383 110.733 69.2383 110.738 69.2383C110.742 69.2383 110.746 69.2383 110.75 69.2383C110.755 69.2383 110.759 69.2383 110.763 69.2383C110.768 69.2383 110.772 69.2383 110.776 69.2383C110.78 69.2383 110.785 69.2383 110.789 69.2383C110.793 69.2383 110.797 69.2383 110.802 69.2383C110.806 69.2383 110.81 69.2383 110.814 69.2383C110.819 69.2383 110.823 69.2383 110.827 69.2383C110.831 69.2383 110.836 69.2383 110.84 69.2383C110.844 69.2383 110.848 69.2383 110.853 69.2383C110.857 69.2383 110.861 69.2383 110.865 69.2383C110.87 69.2383 110.874 69.2383 110.878 69.2383C110.882 69.2383 110.886 69.2383 110.891 69.2383C110.895 69.2383 110.899 69.2383 110.903 69.2383C110.908 69.2383 110.912 69.2383 110.916 69.2383C110.92 69.2383 110.924 69.2383 110.929 69.2383C110.933 69.2383 110.937 69.2383 110.941 69.2383C110.946 69.2383 110.95 69.2383 110.954 69.2383C110.958 69.2383 110.962 69.2383 110.967 69.2383C110.971 69.2383 110.975 69.2383 110.979 69.2383C110.983 69.2383 110.987 69.2383 110.992 69.2383C110.996 69.2383 111 69.2383 111.004 69.2383C111.008 69.2383 111.013 69.2383 111.017 69.2383C111.021 69.2383 111.025 69.2383 111.029 69.2383C111.033 69.2383 111.038 69.2383 111.042 69.2383C111.046 69.2383 111.05 69.2383 111.054 69.2383C111.059 69.2383 111.063 69.2383 111.067 69.2383C111.071 69.2383 111.075 69.2383 111.079 69.2383C111.083 69.2383 111.088 69.2383 111.092 69.2383C111.096 69.2383 111.1 69.2383 111.104 69.2383C111.108 69.2383 111.113 69.2383 111.117 69.2383C111.121 69.2383 111.125 69.2383 111.129 69.2383C111.133 69.2383 111.137 69.2383 111.142 69.2383C111.146 69.2383 111.15 69.2383 111.154 69.2383C111.158 69.2383 111.162 69.2383 111.166 69.2383C111.17 69.2383 111.175 69.2383 111.179 69.2383C111.183 69.2383 111.187 69.2383 111.191 69.2383C111.195 69.2383 111.199 69.2383 111.203 69.2383C111.207 69.2383 111.212 69.2383 111.216 69.2383C111.22 69.2383 111.224 69.2383 111.228 69.2383C111.232 69.2383 111.236 69.2383 111.24 69.2383C111.244 69.2383 111.248 69.2383 111.253 69.2383C111.257 69.2383 111.261 69.2383 111.265 69.2383C111.269 69.2383 111.273 69.2383 111.277 69.2383C111.281 69.2383 111.285 69.2383 111.289 69.2383C111.293 69.2383 111.298 69.2383 111.302 69.2383C111.306 69.2383 111.31 69.2383 111.314 69.2383C111.318 69.2383 111.322 69.2383 111.326 69.2383C111.33 69.2383 111.334 69.2383 111.338 69.2383C111.342 69.2383 111.346 69.2383 111.35 69.2383C111.354 69.2383 111.358 69.2383 111.363 69.2383C111.367 69.2383 111.371 69.2383 111.375 69.2383C111.379 69.2383 111.383 69.2383 111.387 69.2383C111.391 69.2383 111.395 69.2383 111.399 69.2383C111.403 69.2383 111.407 69.2383 111.411 69.2383C111.415 69.2383 111.419 69.2383 111.423 69.2383C111.427 69.2383 111.431 69.2383 111.435 69.2383C111.439 69.2383 111.443 69.2383 111.447 69.2383C111.451 69.2383 111.455 69.2383 111.459 69.2383C111.463 69.2383 111.467 69.2383 111.471 69.2383C111.475 69.2383 111.479 69.2383 111.483 69.2383C111.487 69.2383 111.491 69.2383 111.495 69.2383C111.499 69.2383 111.503 69.2383 111.507 69.2383C111.511 69.2383 111.515 69.2383 111.519 69.2383C111.523 69.2383 111.527 69.2383 111.531 69.2383C111.535 69.2383 111.539 69.2383 111.543 69.2383C111.547 69.2383 111.551 69.2383 111.555 69.2383C111.559 69.2383 111.563 69.2383 111.567 69.2383C111.571 69.2383 111.575 69.2383 111.579 69.2383C111.583 69.2383 111.587 69.2383 111.591 69.2383C111.595 69.2383 111.599 69.2383 111.603 69.2383C111.607 69.2383 111.611 69.2383 111.615 69.2383C111.619 69.2383 111.623 69.2383 111.627 69.2383C111.631 69.2383 111.635 69.2383 111.638 69.2383C111.642 69.2383 111.646 69.2383 111.65 69.2383C111.654 69.2383 111.658 69.2383 111.662 69.2383C111.666 69.2383 111.67 69.2383 111.674 69.2383C111.678 69.2383 111.682 69.2383 111.686 69.2383C111.69 69.2383 111.694 69.2383 111.698 69.2383C111.701 69.2383 111.705 69.2383 111.709 69.2383C111.713 69.2383 111.717 69.2383 111.721 69.2383C111.725 69.2383 111.729 69.2383 111.733 69.2383C111.737 69.2383 111.741 69.2383 111.744 69.2383C111.748 69.2383 111.752 69.2383 111.756 69.2383C111.76 69.2383 111.764 69.2383 111.768 69.2383C111.772 69.2383 111.776 69.2383 111.78 69.2383C111.783 69.2383 111.787 69.2383 111.791 69.2383C111.795 69.2383 111.799 69.2383 111.803 69.2383C111.807 69.2383 111.811 69.2383 111.815 69.2383C111.818 69.2383 111.822 69.2383 111.826 69.2383C111.83 69.2383 111.834 69.2383 111.838 69.2383C111.842 69.2383 111.846 69.2383 111.849 69.2383C111.853 69.2383 111.857 69.2383 111.861 69.2383C111.865 69.2383 111.869 69.2383 111.873 69.2383C111.876 69.2383 111.88 69.2383 111.884 69.2383C111.888 69.2383 111.892 69.2383 111.896 69.2383C111.899 69.2383 111.903 69.2383 111.907 69.2383C111.911 69.2383 111.915 69.2383 111.919 69.2383C111.923 69.2383 111.926 69.2383 111.93 69.2383C111.934 69.2383 111.938 69.2383 111.942 69.2383C111.946 69.2383 111.949 69.2383 111.953 69.2383C111.957 69.2383 111.961 69.2383 111.965 69.2383C111.968 69.2383 111.972 69.2383 111.976 69.2383C111.98 69.2383 111.984 69.2383 111.988 69.2383C111.991 69.2383 111.995 69.2383 111.999 69.2383C112.003 69.2383 112.007 69.2383 112.01 69.2383C112.014 69.2383 112.018 69.2383 112.022 69.2383C112.026 69.2383 112.029 69.2383 112.033 69.2383C112.037 69.2383 112.041 69.2383 112.044 69.2383C112.048 69.2383 112.052 69.2383 112.056 69.2383C112.06 69.2383 112.063 69.2383 112.067 69.2383C112.071 69.2383 112.075 69.2383 112.078 69.2383C112.082 69.2383 112.086 69.2383 112.09 69.2383C112.094 69.2383 112.097 69.2383 112.101 69.2383C112.105 69.2383 112.109 69.2383 112.112 69.2383C112.116 69.2383 112.12 69.2383 112.124 69.2383C112.127 69.2383 112.131 69.2383 112.135 69.2383C112.139 69.2383 112.142 69.2383 112.146 69.2383C112.15 69.2383 112.154 69.2383 112.157 69.2383C112.161 69.2383 112.165 69.2383 112.169 69.2383C112.172 69.2383 112.176 69.2383 112.18 69.2383C112.184 69.2383 112.187 69.2383 112.191 69.2383C112.195 69.2383 112.198 69.2383 112.202 69.2383C112.206 69.2383 112.21 69.2383 112.213 69.2383C112.217 69.2383 112.221 69.2383 112.224 69.2383C112.228 69.2383 112.232 69.2383 112.236 69.2383C112.239 69.2383 112.243 69.2383 112.247 69.2383C112.25 69.2383 112.254 69.2383 112.258 69.2383C112.262 69.2383 112.265 69.2383 112.269 69.2383C112.273 69.2383 112.276 69.2383 112.28 69.2383C112.284 69.2383 112.287 69.2383 112.291 69.2383C112.295 69.2383 112.298 69.2383 112.302 69.2383C112.306 69.2383 112.309 69.2383 112.313 69.2383C112.317 69.2383 112.32 69.2383 112.324 69.2383C112.328 69.2383 112.331 69.2383 112.335 69.2383C112.339 69.2383 112.342 69.2383 112.346 69.2383C112.35 69.2383 112.353 69.2383 112.357 69.2383C112.361 69.2383 112.364 69.2383 112.368 69.2383C112.372 69.2383 112.375 69.2383 112.379 69.2383C112.383 69.2383 112.386 69.2383 112.39 69.2383C112.394 69.2383 112.397 69.2383 112.401 69.2383C112.405 69.2383 112.408 69.2383 112.412 69.2383C112.415 69.2383 112.419 69.2383 112.423 69.2383C112.426 69.2383 112.43 69.2383 112.434 69.2383C112.437 69.2383 112.441 69.2383 112.444 69.2383C112.448 69.2383 112.452 69.2383 112.455 69.2383C112.459 69.2383 112.463 69.2383 112.466 69.2383C112.47 69.2383 112.473 69.2383 112.477 69.2383C112.481 69.2383 112.484 69.2383 112.488 69.2383C112.491 69.2383 112.495 69.2383 112.499 69.2383C112.502 69.2383 112.506 69.2383 112.509 69.2383C112.513 69.2383 112.517 69.2383 112.52 69.2383C112.524 69.2383 112.527 69.2383 112.531 69.2383C112.535 69.2383 112.538 69.2383 112.542 69.2383C112.545 69.2383 112.549 69.2383 112.552 69.2383C112.556 69.2383 112.56 69.2383 112.563 69.2383C112.567 69.2383 112.57 69.2383 112.574 69.2383C112.577 69.2383 112.581 69.2383 112.585 69.2383C112.588 69.2383 112.592 69.2383 112.595 69.2383C112.599 69.2383 112.602 69.2383 112.606 69.2383C112.609 69.2383 112.613 69.2383 112.617 69.2383C112.62 69.2383 112.624 69.2383 112.627 69.2383C112.631 69.2383 112.634 69.2383 112.638 69.2383C112.641 69.2383 112.645 69.2383 112.648 69.2383C112.652 69.2383 112.655 69.2383 112.659 69.2383C112.663 69.2383 112.666 69.2383 112.67 69.2383C112.673 69.2383 112.677 69.2383 112.68 69.2383C112.684 69.2383 112.687 69.2383 112.691 69.2383C112.694 69.2383 112.698 69.2383 112.701 69.2383C112.705 69.2383 112.708 69.2383 112.712 69.2383C112.715 69.2383 112.719 69.2383 112.722 69.2383C112.726 69.2383 112.729 69.2383 112.733 69.2383C112.736 69.2383 112.74 69.2383 112.743 69.2383C112.747 69.2383 112.75 69.2383 112.754 69.2383C112.757 69.2383 112.761 69.2383 112.764 69.2383C112.768 69.2383 112.771 69.2383 112.775 69.2383C112.778 69.2383 112.782 69.2383 112.785 69.2383C112.789 69.2383 112.792 69.2383 112.796 69.2383C112.799 69.2383 112.802 69.2383 112.806 69.2383C112.809 69.2383 112.813 69.2383 112.816 69.2383C112.82 69.2383 112.823 69.2383 112.827 69.2383C112.83 69.2383 112.834 69.2383 112.837 69.2383C112.84 69.2383 112.844 69.2383 112.847 69.2383C112.851 69.2383 112.854 69.2383 112.858 69.2383C112.861 69.2383 112.865 69.2383 112.868 69.2383C112.871 69.2383 112.875 69.2383 112.878 69.2383C112.882 69.2383 112.885 69.2383 112.889 69.2383C112.892 69.2383 112.896 69.2383 112.899 69.2383C112.902 69.2383 112.906 69.2383 112.909 69.2383C112.913 69.2383 112.916 69.2383 112.919 69.2383C112.923 69.2383 112.926 69.2383 112.93 69.2383C112.933 69.2383 112.937 69.2383 112.94 69.2383C112.943 69.2383 112.947 69.2383 112.95 69.2383C112.954 69.2383 112.957 69.2383 112.96 69.2383C112.964 69.2383 112.967 69.2383 112.971 69.2383C112.974 69.2383 112.977 69.2383 112.981 69.2383C112.984 69.2383 112.987 69.2383 112.991 69.2383C112.994 69.2383 112.998 69.2383 113.001 69.2383C113.004 69.2383 113.008 69.2383 113.011 69.2383C113.014 69.2383 113.018 69.2383 113.021 69.2383C113.025 69.2383 113.028 69.2383 113.031 69.2383C113.035 69.2383 113.038 69.2383 113.041 69.2383C113.045 69.2383 113.048 69.2383 113.051 69.2383C113.055 69.2383 113.058 69.2383 113.062 69.2383C113.065 69.2383 113.068 69.2383 113.072 69.2383C113.075 69.2383 113.078 69.2383 113.082 69.2383C113.085 69.2383 113.088 69.2383 113.092 69.2383C113.095 69.2383 113.098 69.2383 113.102 69.2383C113.105 69.2383 113.108 69.2383 113.112 69.2383C113.115 69.2383 113.118 69.2383 113.122 69.2383C113.125 69.2383 113.128 69.2383 113.132 69.2383C113.135 69.2383 113.138 69.2383 113.142 69.2383C113.145 69.2383 113.148 69.2383 113.151 69.2383C113.155 69.2383 113.158 69.2383 113.161 69.2383C113.165 69.2383 113.168 69.2383 113.171 69.2383C113.175 69.2383 113.178 69.2383 113.181 69.2383C113.184 69.2383 113.188 69.2383 113.191 69.2383C113.194 69.2383 113.198 69.2383 113.201 69.2383C113.204 69.2383 113.208 69.2383 113.211 69.2383C113.214 69.2383 113.217 69.2383 113.221 69.2383C113.224 69.2383 113.227 69.2383 113.23 69.2383C113.234 69.2383 113.237 69.2383 113.24 69.2383C113.244 69.2383 113.247 69.2383 113.25 69.2383C113.253 69.2383 113.257 69.2383 113.26 69.2383C113.263 69.2383 113.266 69.2383 113.27 69.2383C113.273 69.2383 113.276 69.2383 113.279 69.2383C113.283 69.2383 113.286 69.2383 113.289 69.2383C113.292 69.2383 113.296 69.2383 113.299 69.2383C113.302 69.2383 113.305 69.2383 113.309 69.2383C113.312 69.2383 113.315 69.2383 113.318 69.2383C113.322 69.2383 113.325 69.2383 113.328 69.2383C113.331 69.2383 113.334 69.2383 113.338 69.2383C113.341 69.2383 113.344 69.2383 113.347 69.2383C113.351 69.2383 113.354 69.2383 113.357 69.2383C113.36 69.2383 113.363 69.2383 113.367 69.2383C113.37 69.2383 113.373 69.2383 113.376 69.2383C113.379 69.2383 113.383 69.2383 113.386 69.2383C113.389 69.2383 113.392 69.2383 113.395 69.2383C113.399 69.2383 113.402 69.2383 113.405 69.2383C113.408 69.2383 113.411 69.2383 113.415 69.2383C113.418 69.2383 113.421 69.2383 113.424 69.2383C113.427 69.2383 113.43 69.2383 113.434 69.2383C113.437 69.2383 113.44 69.2383 113.443 69.2383C113.446 69.2383 113.45 69.2383 113.453 69.2383C113.456 69.2383 113.459 69.2383 113.462 69.2383C113.465 69.2383 113.469 69.2383 113.472 69.2383C113.475 69.2383 113.478 69.2383 113.481 69.2383C113.484 69.2383 113.487 69.2383 113.491 69.2383C113.494 69.2383 113.497 69.2383 113.5 69.2383C113.503 69.2383 113.506 69.2383 113.509 69.2383C113.513 69.2383 113.516 69.2383 113.519 69.2383C113.522 69.2383 113.525 69.2383 113.528 69.2383C113.531 69.2383 113.535 69.2383 113.538 69.2383V68.2377V67.2372C113.535 67.2372 113.531 67.2372 113.528 67.2372C113.525 67.2372 113.522 67.2372 113.519 67.2372C113.516 67.2372 113.513 67.2372 113.509 67.2372C113.506 67.2372 113.503 67.2372 113.5 67.2372C113.497 67.2372 113.494 67.2372 113.491 67.2372C113.487 67.2372 113.484 67.2372 113.481 67.2372C113.478 67.2372 113.475 67.2372 113.472 67.2372C113.469 67.2372 113.465 67.2372 113.462 67.2372C113.459 67.2372 113.456 67.2372 113.453 67.2372C113.45 67.2372 113.446 67.2372 113.443 67.2372C113.44 67.2372 113.437 67.2372 113.434 67.2372C113.43 67.2372 113.427 67.2372 113.424 67.2372C113.421 67.2372 113.418 67.2372 113.415 67.2372C113.411 67.2372 113.408 67.2372 113.405 67.2372C113.402 67.2372 113.399 67.2372 113.395 67.2372C113.392 67.2372 113.389 67.2372 113.386 67.2372C113.383 67.2372 113.379 67.2372 113.376 67.2372C113.373 67.2372 113.37 67.2372 113.367 67.2372C113.363 67.2372 113.36 67.2372 113.357 67.2372C113.354 67.2372 113.351 67.2372 113.347 67.2372C113.344 67.2372 113.341 67.2372 113.338 67.2372C113.334 67.2372 113.331 67.2372 113.328 67.2372C113.325 67.2372 113.322 67.2372 113.318 67.2372C113.315 67.2372 113.312 67.2372 113.309 67.2372C113.305 67.2372 113.302 67.2372 113.299 67.2372C113.296 67.2372 113.292 67.2372 113.289 67.2372C113.286 67.2372 113.283 67.2372 113.279 67.2372C113.276 67.2372 113.273 67.2372 113.27 67.2372C113.266 67.2372 113.263 67.2372 113.26 67.2372C113.257 67.2372 113.253 67.2372 113.25 67.2372C113.247 67.2372 113.244 67.2372 113.24 67.2372C113.237 67.2372 113.234 67.2372 113.23 67.2372C113.227 67.2372 113.224 67.2372 113.221 67.2372C113.217 67.2372 113.214 67.2372 113.211 67.2372C113.208 67.2372 113.204 67.2372 113.201 67.2372C113.198 67.2372 113.194 67.2372 113.191 67.2372C113.188 67.2372 113.184 67.2372 113.181 67.2372C113.178 67.2372 113.175 67.2372 113.171 67.2372C113.168 67.2372 113.165 67.2372 113.161 67.2372C113.158 67.2372 113.155 67.2372 113.151 67.2372C113.148 67.2372 113.145 67.2372 113.142 67.2372C113.138 67.2372 113.135 67.2372 113.132 67.2372C113.128 67.2372 113.125 67.2372 113.122 67.2372C113.118 67.2372 113.115 67.2372 113.112 67.2372C113.108 67.2372 113.105 67.2372 113.102 67.2372C113.098 67.2372 113.095 67.2372 113.092 67.2372C113.088 67.2372 113.085 67.2372 113.082 67.2372C113.078 67.2372 113.075 67.2372 113.072 67.2372C113.068 67.2372 113.065 67.2372 113.062 67.2372C113.058 67.2372 113.055 67.2372 113.051 67.2372C113.048 67.2372 113.045 67.2372 113.041 67.2372C113.038 67.2372 113.035 67.2372 113.031 67.2372C113.028 67.2372 113.025 67.2372 113.021 67.2372C113.018 67.2372 113.014 67.2372 113.011 67.2372C113.008 67.2372 113.004 67.2372 113.001 67.2372C112.998 67.2372 112.994 67.2372 112.991 67.2372C112.987 67.2372 112.984 67.2372 112.981 67.2372C112.977 67.2372 112.974 67.2372 112.971 67.2372C112.967 67.2372 112.964 67.2372 112.96 67.2372C112.957 67.2372 112.954 67.2372 112.95 67.2372C112.947 67.2372 112.943 67.2372 112.94 67.2372C112.937 67.2372 112.933 67.2372 112.93 67.2372C112.926 67.2372 112.923 67.2372 112.919 67.2372C112.916 67.2372 112.913 67.2372 112.909 67.2372C112.906 67.2372 112.902 67.2372 112.899 67.2372C112.896 67.2372 112.892 67.2372 112.889 67.2372C112.885 67.2372 112.882 67.2372 112.878 67.2372C112.875 67.2372 112.871 67.2372 112.868 67.2372C112.865 67.2372 112.861 67.2372 112.858 67.2372C112.854 67.2372 112.851 67.2372 112.847 67.2372C112.844 67.2372 112.84 67.2372 112.837 67.2372C112.834 67.2372 112.83 67.2372 112.827 67.2372C112.823 67.2372 112.82 67.2372 112.816 67.2372C112.813 67.2372 112.809 67.2372 112.806 67.2372C112.802 67.2372 112.799 67.2372 112.796 67.2372C112.792 67.2372 112.789 67.2372 112.785 67.2372C112.782 67.2372 112.778 67.2372 112.775 67.2372C112.771 67.2372 112.768 67.2372 112.764 67.2372C112.761 67.2372 112.757 67.2372 112.754 67.2372C112.75 67.2372 112.747 67.2372 112.743 67.2372C112.74 67.2372 112.736 67.2372 112.733 67.2372C112.729 67.2372 112.726 67.2372 112.722 67.2372C112.719 67.2372 112.715 67.2372 112.712 67.2372C112.708 67.2372 112.705 67.2372 112.701 67.2372C112.698 67.2372 112.694 67.2372 112.691 67.2372C112.687 67.2372 112.684 67.2372 112.68 67.2372C112.677 67.2372 112.673 67.2372 112.67 67.2372C112.666 67.2372 112.663 67.2372 112.659 67.2372C112.655 67.2372 112.652 67.2372 112.648 67.2372C112.645 67.2372 112.641 67.2372 112.638 67.2372C112.634 67.2372 112.631 67.2372 112.627 67.2372C112.624 67.2372 112.62 67.2372 112.617 67.2372C112.613 67.2372 112.609 67.2372 112.606 67.2372C112.602 67.2372 112.599 67.2372 112.595 67.2372C112.592 67.2372 112.588 67.2372 112.585 67.2372C112.581 67.2372 112.577 67.2372 112.574 67.2372C112.57 67.2372 112.567 67.2372 112.563 67.2372C112.56 67.2372 112.556 67.2372 112.552 67.2372C112.549 67.2372 112.545 67.2372 112.542 67.2372C112.538 67.2372 112.535 67.2372 112.531 67.2372C112.527 67.2372 112.524 67.2372 112.52 67.2372C112.517 67.2372 112.513 67.2372 112.509 67.2372C112.506 67.2372 112.502 67.2372 112.499 67.2372C112.495 67.2372 112.491 67.2372 112.488 67.2372C112.484 67.2372 112.481 67.2372 112.477 67.2372C112.473 67.2372 112.47 67.2372 112.466 67.2372C112.463 67.2372 112.459 67.2372 112.455 67.2372C112.452 67.2372 112.448 67.2372 112.444 67.2372C112.441 67.2372 112.437 67.2372 112.434 67.2372C112.43 67.2372 112.426 67.2372 112.423 67.2372C112.419 67.2372 112.415 67.2372 112.412 67.2372C112.408 67.2372 112.405 67.2372 112.401 67.2372C112.397 67.2372 112.394 67.2372 112.39 67.2372C112.386 67.2372 112.383 67.2372 112.379 67.2372C112.375 67.2372 112.372 67.2372 112.368 67.2372C112.364 67.2372 112.361 67.2372 112.357 67.2372C112.353 67.2372 112.35 67.2372 112.346 67.2372C112.342 67.2372 112.339 67.2372 112.335 67.2372C112.331 67.2372 112.328 67.2372 112.324 67.2372C112.32 67.2372 112.317 67.2372 112.313 67.2372C112.309 67.2372 112.306 67.2372 112.302 67.2372C112.298 67.2372 112.295 67.2372 112.291 67.2372C112.287 67.2372 112.284 67.2372 112.28 67.2372C112.276 67.2372 112.273 67.2372 112.269 67.2372C112.265 67.2372 112.262 67.2372 112.258 67.2372C112.254 67.2372 112.25 67.2372 112.247 67.2372C112.243 67.2372 112.239 67.2372 112.236 67.2372C112.232 67.2372 112.228 67.2372 112.224 67.2372C112.221 67.2372 112.217 67.2372 112.213 67.2372C112.21 67.2372 112.206 67.2372 112.202 67.2372C112.198 67.2372 112.195 67.2372 112.191 67.2372C112.187 67.2372 112.184 67.2372 112.18 67.2372C112.176 67.2372 112.172 67.2372 112.169 67.2372C112.165 67.2372 112.161 67.2372 112.157 67.2372C112.154 67.2372 112.15 67.2372 112.146 67.2372C112.142 67.2372 112.139 67.2372 112.135 67.2372C112.131 67.2372 112.127 67.2372 112.124 67.2372C112.12 67.2372 112.116 67.2372 112.112 67.2372C112.109 67.2372 112.105 67.2372 112.101 67.2372C112.097 67.2372 112.094 67.2372 112.09 67.2372C112.086 67.2372 112.082 67.2372 112.078 67.2372C112.075 67.2372 112.071 67.2372 112.067 67.2372C112.063 67.2372 112.06 67.2372 112.056 67.2372C112.052 67.2372 112.048 67.2372 112.044 67.2372C112.041 67.2372 112.037 67.2372 112.033 67.2372C112.029 67.2372 112.026 67.2372 112.022 67.2372C112.018 67.2372 112.014 67.2372 112.01 67.2372C112.007 67.2372 112.003 67.2372 111.999 67.2372C111.995 67.2372 111.991 67.2372 111.988 67.2372C111.984 67.2372 111.98 67.2372 111.976 67.2372C111.972 67.2372 111.968 67.2372 111.965 67.2372C111.961 67.2372 111.957 67.2372 111.953 67.2372C111.949 67.2372 111.946 67.2372 111.942 67.2372C111.938 67.2372 111.934 67.2372 111.93 67.2372C111.926 67.2372 111.923 67.2372 111.919 67.2372C111.915 67.2372 111.911 67.2372 111.907 67.2372C111.903 67.2372 111.899 67.2372 111.896 67.2372C111.892 67.2372 111.888 67.2372 111.884 67.2372C111.88 67.2372 111.876 67.2372 111.873 67.2372C111.869 67.2372 111.865 67.2372 111.861 67.2372C111.857 67.2372 111.853 67.2372 111.849 67.2372C111.846 67.2372 111.842 67.2372 111.838 67.2372C111.834 67.2372 111.83 67.2372 111.826 67.2372C111.822 67.2372 111.818 67.2372 111.815 67.2372C111.811 67.2372 111.807 67.2372 111.803 67.2372C111.799 67.2372 111.795 67.2372 111.791 67.2372C111.787 67.2372 111.783 67.2372 111.78 67.2372C111.776 67.2372 111.772 67.2372 111.768 67.2372C111.764 67.2372 111.76 67.2372 111.756 67.2372C111.752 67.2372 111.748 67.2372 111.744 67.2372C111.741 67.2372 111.737 67.2372 111.733 67.2372C111.729 67.2372 111.725 67.2372 111.721 67.2372C111.717 67.2372 111.713 67.2372 111.709 67.2372C111.705 67.2372 111.701 67.2372 111.698 67.2372C111.694 67.2372 111.69 67.2372 111.686 67.2372C111.682 67.2372 111.678 67.2372 111.674 67.2372C111.67 67.2372 111.666 67.2372 111.662 67.2372C111.658 67.2372 111.654 67.2372 111.65 67.2372C111.646 67.2372 111.642 67.2372 111.638 67.2372C111.635 67.2372 111.631 67.2372 111.627 67.2372C111.623 67.2372 111.619 67.2372 111.615 67.2372C111.611 67.2372 111.607 67.2372 111.603 67.2372C111.599 67.2372 111.595 67.2372 111.591 67.2372C111.587 67.2372 111.583 67.2372 111.579 67.2372C111.575 67.2372 111.571 67.2372 111.567 67.2372C111.563 67.2372 111.559 67.2372 111.555 67.2372C111.551 67.2372 111.547 67.2372 111.543 67.2372C111.539 67.2372 111.535 67.2372 111.531 67.2372C111.527 67.2372 111.523 67.2372 111.519 67.2372C111.515 67.2372 111.511 67.2372 111.507 67.2372C111.503 67.2372 111.499 67.2372 111.495 67.2372C111.491 67.2372 111.487 67.2372 111.483 67.2372C111.479 67.2372 111.475 67.2372 111.471 67.2372C111.467 67.2372 111.463 67.2372 111.459 67.2372C111.455 67.2372 111.451 67.2372 111.447 67.2372C111.443 67.2372 111.439 67.2372 111.435 67.2372C111.431 67.2372 111.427 67.2372 111.423 67.2372C111.419 67.2372 111.415 67.2372 111.411 67.2372C111.407 67.2372 111.403 67.2372 111.399 67.2372C111.395 67.2372 111.391 67.2372 111.387 67.2372C111.383 67.2372 111.379 67.2372 111.375 67.2372C111.371 67.2372 111.367 67.2372 111.363 67.2372C111.358 67.2372 111.354 67.2372 111.35 67.2372C111.346 67.2372 111.342 67.2372 111.338 67.2372C111.334 67.2372 111.33 67.2372 111.326 67.2372C111.322 67.2372 111.318 67.2372 111.314 67.2372C111.31 67.2372 111.306 67.2372 111.302 67.2372C111.298 67.2372 111.293 67.2372 111.289 67.2372C111.285 67.2372 111.281 67.2372 111.277 67.2372C111.273 67.2372 111.269 67.2372 111.265 67.2372C111.261 67.2372 111.257 67.2372 111.253 67.2372C111.248 67.2372 111.244 67.2372 111.24 67.2372C111.236 67.2372 111.232 67.2372 111.228 67.2372C111.224 67.2372 111.22 67.2372 111.216 67.2372C111.212 67.2372 111.207 67.2372 111.203 67.2372C111.199 67.2372 111.195 67.2372 111.191 67.2372C111.187 67.2372 111.183 67.2372 111.179 67.2372C111.175 67.2372 111.17 67.2372 111.166 67.2372C111.162 67.2372 111.158 67.2372 111.154 67.2372C111.15 67.2372 111.146 67.2372 111.142 67.2372C111.137 67.2372 111.133 67.2372 111.129 67.2372C111.125 67.2372 111.121 67.2372 111.117 67.2372C111.113 67.2372 111.108 67.2372 111.104 67.2372C111.1 67.2372 111.096 67.2372 111.092 67.2372C111.088 67.2372 111.083 67.2372 111.079 67.2372C111.075 67.2372 111.071 67.2372 111.067 67.2372C111.063 67.2372 111.059 67.2372 111.054 67.2372C111.05 67.2372 111.046 67.2372 111.042 67.2372C111.038 67.2372 111.033 67.2372 111.029 67.2372C111.025 67.2372 111.021 67.2372 111.017 67.2372C111.013 67.2372 111.008 67.2372 111.004 67.2372C111 67.2372 110.996 67.2372 110.992 67.2372C110.987 67.2372 110.983 67.2372 110.979 67.2372C110.975 67.2372 110.971 67.2372 110.967 67.2372C110.962 67.2372 110.958 67.2372 110.954 67.2372C110.95 67.2372 110.946 67.2372 110.941 67.2372C110.937 67.2372 110.933 67.2372 110.929 67.2372C110.924 67.2372 110.92 67.2372 110.916 67.2372C110.912 67.2372 110.908 67.2372 110.903 67.2372C110.899 67.2372 110.895 67.2372 110.891 67.2372C110.886 67.2372 110.882 67.2372 110.878 67.2372C110.874 67.2372 110.87 67.2372 110.865 67.2372C110.861 67.2372 110.857 67.2372 110.853 67.2372C110.848 67.2372 110.844 67.2372 110.84 67.2372C110.836 67.2372 110.831 67.2372 110.827 67.2372C110.823 67.2372 110.819 67.2372 110.814 67.2372C110.81 67.2372 110.806 67.2372 110.802 67.2372C110.797 67.2372 110.793 67.2372 110.789 67.2372C110.785 67.2372 110.78 67.2372 110.776 67.2372C110.772 67.2372 110.768 67.2372 110.763 67.2372C110.759 67.2372 110.755 67.2372 110.75 67.2372C110.746 67.2372 110.742 67.2372 110.738 67.2372C110.733 67.2372 110.729 67.2372 110.725 67.2372C110.72 67.2372 110.716 67.2372 110.712 67.2372C110.708 67.2372 110.703 67.2372 110.699 67.2372C110.695 67.2372 110.69 67.2372 110.686 67.2372C110.682 67.2372 110.677 67.2372 110.673 67.2372C110.669 67.2372 110.665 67.2372 110.66 67.2372C110.656 67.2372 110.652 67.2372 110.647 67.2372C110.643 67.2372 110.639 67.2372 110.634 67.2372C110.63 67.2372 110.626 67.2372 110.621 67.2372C110.617 67.2372 110.613 67.2372 110.608 67.2372C110.604 67.2372 110.6 67.2372 110.595 67.2372C110.591 67.2372 110.587 67.2372 110.582 67.2372C110.578 67.2372 110.574 67.2372 110.569 67.2372C110.565 67.2372 110.561 67.2372 110.556 67.2372C110.552 67.2372 110.548 67.2372 110.543 67.2372C110.539 67.2372 110.535 67.2372 110.53 67.2372C110.526 67.2372 110.522 67.2372 110.517 67.2372C110.513 67.2372 110.509 67.2372 110.504 67.2372C110.5 67.2372 110.495 67.2372 110.491 67.2372C110.487 67.2372 110.482 67.2372 110.478 67.2372C110.474 67.2372 110.469 67.2372 110.465 67.2372C110.46 67.2372 110.456 67.2372 110.452 67.2372C110.447 67.2372 110.443 67.2372 110.439 67.2372C110.434 67.2372 110.43 67.2372 110.425 67.2372C110.421 67.2372 110.417 67.2372 110.412 67.2372C110.408 67.2372 110.403 67.2372 110.399 67.2372C110.395 67.2372 110.39 67.2372 110.386 67.2372C110.381 67.2372 110.377 67.2372 110.373 67.2372C110.368 67.2372 110.364 67.2372 110.359 67.2372C110.355 67.2372 110.351 67.2372 110.346 67.2372C110.342 67.2372 110.337 67.2372 110.333 67.2372C110.328 67.2372 110.324 67.2372 110.32 67.2372C110.315 67.2372 110.311 67.2372 110.306 67.2372C110.302 67.2372 110.297 67.2372 110.293 67.2372C110.289 67.2372 110.284 67.2372 110.28 67.2372C110.275 67.2372 110.271 67.2372 110.266 67.2372C110.262 67.2372 110.257 67.2372 110.253 67.2372C110.249 67.2372 110.244 67.2372 110.24 67.2372C110.235 67.2372 110.231 67.2372 110.226 67.2372C110.222 67.2372 110.217 67.2372 110.213 67.2372C110.208 67.2372 110.204 67.2372 110.199 67.2372C110.195 67.2372 110.191 67.2372 110.186 67.2372C110.182 67.2372 110.177 67.2372 110.173 67.2372C110.168 67.2372 110.164 67.2372 110.159 67.2372C110.155 67.2372 110.15 67.2372 110.146 67.2372C110.141 67.2372 110.137 67.2372 110.132 67.2372C110.128 67.2372 110.123 67.2372 110.119 67.2372C110.114 67.2372 110.11 67.2372 110.105 67.2372C110.101 67.2372 110.096 67.2372 110.092 67.2372C110.087 67.2372 110.083 67.2372 110.078 67.2372C110.074 67.2372 110.069 67.2372 110.065 67.2372C110.06 67.2372 110.056 67.2372 110.051 67.2372C110.047 67.2372 110.042 67.2372 110.038 67.2372C110.033 67.2372 110.029 67.2372 110.024 67.2372C110.02 67.2372 110.015 67.2372 110.01 67.2372C110.006 67.2372 110.001 67.2372 109.997 67.2372C109.992 67.2372 109.988 67.2372 109.983 67.2372C109.979 67.2372 109.974 67.2372 109.97 67.2372C109.965 67.2372 109.96 67.2372 109.956 67.2372C109.951 67.2372 109.947 67.2372 109.942 67.2372C109.938 67.2372 109.933 67.2372 109.929 67.2372C109.924 67.2372 109.919 67.2372 109.915 67.2372C109.91 67.2372 109.906 67.2372 109.901 67.2372C109.897 67.2372 109.892 67.2372 109.887 67.2372C109.883 67.2372 109.878 67.2372 109.874 67.2372C109.869 67.2372 109.865 67.2372 109.86 67.2372C109.855 67.2372 109.851 67.2372 109.846 67.2372C109.842 67.2372 109.837 67.2372 109.833 67.2372C109.828 67.2372 109.823 67.2372 109.819 67.2372C109.814 67.2372 109.81 67.2372 109.805 67.2372C109.8 67.2372 109.796 67.2372 109.791 67.2372C109.787 67.2372 109.782 67.2372 109.777 67.2372C109.773 67.2372 109.768 67.2372 109.763 67.2372C109.759 67.2372 109.754 67.2372 109.75 67.2372C109.745 67.2372 109.74 67.2372 109.736 67.2372C109.731 67.2372 109.726 67.2372 109.722 67.2372C109.717 67.2372 109.713 67.2372 109.708 67.2372C109.703 67.2372 109.699 67.2372 109.694 67.2372C109.689 67.2372 109.685 67.2372 109.68 67.2372C109.675 67.2372 109.671 67.2372 109.666 67.2372C109.662 67.2372 109.657 67.2372 109.652 67.2372C109.648 67.2372 109.643 67.2372 109.638 67.2372C109.634 67.2372 109.629 67.2372 109.624 67.2372C109.62 67.2372 109.615 67.2372 109.61 67.2372C109.606 67.2372 109.601 67.2372 109.596 67.2372C109.592 67.2372 109.587 67.2372 109.582 67.2372C109.578 67.2372 109.573 67.2372 109.568 67.2372C109.564 67.2372 109.559 67.2372 109.554 67.2372C109.55 67.2372 109.545 67.2372 109.54 67.2372C109.535 67.2372 109.531 67.2372 109.526 67.2372C109.521 67.2372 109.517 67.2372 109.512 67.2372C109.507 67.2372 109.503 67.2372 109.498 67.2372C109.493 67.2372 109.488 67.2372 109.484 67.2372C109.479 67.2372 109.474 67.2372 109.47 67.2372C109.465 67.2372 109.46 67.2372 109.456 67.2372C109.451 67.2372 109.446 67.2372 109.441 67.2372C109.437 67.2372 109.432 67.2372 109.427 67.2372C109.422 67.2372 109.418 67.2372 109.413 67.2372C109.408 67.2372 109.404 67.2372 109.399 67.2372C109.394 67.2372 109.389 67.2372 109.385 67.2372C109.38 67.2372 109.375 67.2372 109.37 67.2372C109.366 67.2372 109.361 67.2372 109.356 67.2372C109.351 67.2372 109.347 67.2372 109.342 67.2372C109.337 67.2372 109.332 67.2372 109.328 67.2372C109.323 67.2372 109.318 67.2372 109.313 67.2372C109.309 67.2372 109.304 67.2372 109.299 67.2372C109.294 67.2372 109.29 67.2372 109.285 67.2372C109.28 67.2372 109.275 67.2372 109.27 67.2372C109.266 67.2372 109.261 67.2372 109.256 67.2372C109.251 67.2372 109.247 67.2372 109.242 67.2372C109.237 67.2372 109.232 67.2372 109.227 67.2372C109.223 67.2372 109.218 67.2372 109.213 67.2372C109.208 67.2372 109.203 67.2372 109.199 67.2372C109.194 67.2372 109.189 67.2372 109.184 67.2372C109.179 67.2372 109.175 67.2372 109.17 67.2372C109.165 67.2372 109.16 67.2372 109.155 67.2372C109.151 67.2372 109.146 67.2372 109.141 67.2372C109.136 67.2372 109.131 67.2372 109.126 67.2372C109.122 67.2372 109.117 67.2372 109.112 67.2372C109.107 67.2372 109.102 67.2372 109.098 67.2372C109.093 67.2372 109.088 67.2372 109.083 67.2372C109.078 67.2372 109.073 67.2372 109.068 67.2372C109.064 67.2372 109.059 67.2372 109.054 67.2372C109.049 67.2372 109.044 67.2372 109.039 67.2372C109.035 67.2372 109.03 67.2372 109.025 67.2372C109.02 67.2372 109.015 67.2372 109.01 67.2372C109.005 67.2372 109.001 67.2372 108.996 67.2372C108.991 67.2372 108.986 67.2372 108.981 67.2372C108.976 67.2372 108.971 67.2372 108.967 67.2372C108.962 67.2372 108.957 67.2372 108.952 67.2372C108.947 67.2372 108.942 67.2372 108.937 67.2372C108.932 67.2372 108.928 67.2372 108.923 67.2372C108.918 67.2372 108.913 67.2372 108.908 67.2372C108.903 67.2372 108.898 67.2372 108.893 67.2372C108.888 67.2372 108.883 67.2372 108.879 67.2372C108.874 67.2372 108.869 67.2372 108.864 67.2372C108.859 67.2372 108.854 67.2372 108.849 67.2372C108.844 67.2372 108.839 67.2372 108.834 67.2372C108.83 67.2372 108.825 67.2372 108.82 67.2372C108.815 67.2372 108.81 67.2372 108.805 67.2372C108.8 67.2372 108.795 67.2372 108.79 67.2372C108.785 67.2372 108.78 67.2372 108.775 67.2372C108.77 67.2372 108.766 67.2372 108.761 67.2372C108.756 67.2372 108.751 67.2372 108.746 67.2372C108.741 67.2372 108.736 67.2372 108.731 67.2372C108.726 67.2372 108.721 67.2372 108.716 67.2372C108.711 67.2372 108.706 67.2372 108.701 67.2372C108.696 67.2372 108.691 67.2372 108.686 67.2372C108.681 67.2372 108.676 67.2372 108.671 67.2372C108.667 67.2372 108.662 67.2372 108.657 67.2372C108.652 67.2372 108.647 67.2372 108.642 67.2372C108.637 67.2372 108.632 67.2372 108.627 67.2372C108.622 67.2372 108.617 67.2372 108.612 67.2372C108.607 67.2372 108.602 67.2372 108.597 67.2372C108.592 67.2372 108.587 67.2372 108.582 67.2372C108.577 67.2372 108.572 67.2372 108.567 67.2372C108.562 67.2372 108.557 67.2372 108.552 67.2372C108.547 67.2372 108.542 67.2372 108.537 67.2372C108.532 67.2372 108.527 67.2372 108.522 67.2372C108.517 67.2372 108.512 67.2372 108.507 67.2372C108.502 67.2372 108.497 67.2372 108.492 67.2372C108.487 67.2372 108.482 67.2372 108.477 67.2372C108.472 67.2372 108.467 67.2372 108.462 67.2372C108.457 67.2372 108.452 67.2372 108.447 67.2372C108.442 67.2372 108.437 67.2372 108.431 67.2372C108.426 67.2372 108.421 67.2372 108.416 67.2372C108.411 67.2372 108.406 67.2372 108.401 67.2372C108.396 67.2372 108.391 67.2372 108.386 67.2372C108.381 67.2372 108.376 67.2372 108.371 67.2372C108.366 67.2372 108.361 67.2372 108.356 67.2372C108.351 67.2372 108.346 67.2372 108.341 67.2372C108.336 67.2372 108.33 67.2372 108.325 67.2372C108.32 67.2372 108.315 67.2372 108.31 67.2372C108.305 67.2372 108.3 67.2372 108.295 67.2372C108.29 67.2372 108.285 67.2372 108.28 67.2372C108.275 67.2372 108.27 67.2372 108.264 67.2372C108.259 67.2372 108.254 67.2372 108.249 67.2372C108.244 67.2372 108.239 67.2372 108.234 67.2372C108.229 67.2372 108.224 67.2372 108.219 67.2372C108.213 67.2372 108.208 67.2372 108.203 67.2372C108.198 67.2372 108.193 67.2372 108.188 67.2372C108.183 67.2372 108.178 67.2372 108.173 67.2372C108.168 67.2372 108.162 67.2372 108.157 67.2372C108.152 67.2372 108.147 67.2372 108.142 67.2372C108.137 67.2372 108.132 67.2372 108.127 67.2372C108.121 67.2372 108.116 67.2372 108.111 67.2372C108.106 67.2372 108.101 67.2372 108.096 67.2372C108.091 67.2372 108.085 67.2372 108.08 67.2372C108.075 67.2372 108.07 67.2372 108.065 67.2372C108.06 67.2372 108.055 67.2372 108.049 67.2372C108.044 67.2372 108.039 67.2372 108.034 67.2372C108.029 67.2372 108.024 67.2372 108.018 67.2372C108.013 67.2372 108.008 67.2372 108.003 67.2372C107.998 67.2372 107.993 67.2372 107.988 67.2372C107.982 67.2372 107.977 67.2372 107.972 67.2372C107.967 67.2372 107.962 67.2372 107.956 67.2372C107.951 67.2372 107.946 67.2372 107.941 67.2372C107.936 67.2372 107.931 67.2372 107.925 67.2372C107.92 67.2372 107.915 67.2372 107.91 67.2372C107.905 67.2372 107.899 67.2372 107.894 67.2372C107.889 67.2372 107.884 67.2372 107.879 67.2372C107.873 67.2372 107.868 67.2372 107.863 67.2372C107.858 67.2372 107.853 67.2372 107.847 67.2372C107.842 67.2372 107.837 67.2372 107.832 67.2372C107.827 67.2372 107.821 67.2372 107.816 67.2372C107.811 67.2372 107.806 67.2372 107.8 67.2372C107.795 67.2372 107.79 67.2372 107.785 67.2372C107.78 67.2372 107.774 67.2372 107.769 67.2372C107.764 67.2372 107.759 67.2372 107.753 67.2372C107.748 67.2372 107.743 67.2372 107.738 67.2372C107.732 67.2372 107.727 67.2372 107.722 67.2372C107.717 67.2372 107.711 67.2372 107.706 67.2372C107.701 67.2372 107.696 67.2372 107.69 67.2372C107.685 67.2372 107.68 67.2372 107.675 67.2372C107.669 67.2372 107.664 67.2372 107.659 67.2372C107.654 67.2372 107.648 67.2372 107.643 67.2372C107.638 67.2372 107.632 67.2372 107.627 67.2372C107.622 67.2372 107.617 67.2372 107.611 67.2372C107.606 67.2372 107.601 67.2372 107.596 67.2372C107.59 67.2372 107.585 67.2372 107.58 67.2372C107.574 67.2372 107.569 67.2372 107.564 67.2372C107.558 67.2372 107.553 67.2372 107.548 67.2372C107.543 67.2372 107.537 67.2372 107.532 67.2372C107.527 67.2372 107.521 67.2372 107.516 67.2372C107.511 67.2372 107.505 67.2372 107.5 67.2372C107.495 67.2372 107.49 67.2372 107.484 67.2372C107.479 67.2372 107.474 67.2372 107.468 67.2372C107.463 67.2372 107.458 67.2372 107.452 67.2372C107.447 67.2372 107.442 67.2372 107.436 67.2372C107.431 67.2372 107.426 67.2372 107.42 67.2372C107.415 67.2372 107.41 67.2372 107.404 67.2372C107.399 67.2372 107.394 67.2372 107.388 67.2372C107.383 67.2372 107.378 67.2372 107.372 67.2372C107.367 67.2372 107.362 67.2372 107.356 67.2372C107.351 67.2372 107.345 67.2372 107.34 67.2372C107.335 67.2372 107.329 67.2372 107.324 67.2372C107.319 67.2372 107.313 67.2372 107.308 67.2372C107.303 67.2372 107.297 67.2372 107.292 67.2372C107.286 67.2372 107.281 67.2372 107.276 67.2372C107.27 67.2372 107.265 67.2372 107.26 67.2372C107.254 67.2372 107.249 67.2372 107.243 67.2372C107.238 67.2372 107.233 67.2372 107.227 67.2372C107.222 67.2372 107.216 67.2372 107.211 67.2372C107.206 67.2372 107.2 67.2372 107.195 67.2372C107.19 67.2372 107.184 67.2372 107.179 67.2372C107.173 67.2372 107.168 67.2372 107.162 67.2372C107.157 67.2372 107.152 67.2372 107.146 67.2372C107.141 67.2372 107.135 67.2372 107.13 67.2372C107.125 67.2372 107.119 67.2372 107.114 67.2372C107.108 67.2372 107.103 67.2372 107.097 67.2372C107.092 67.2372 107.087 67.2372 107.081 67.2372C107.076 67.2372 107.07 67.2372 107.065 67.2372C107.059 67.2372 107.054 67.2372 107.049 67.2372C107.043 67.2372 107.038 67.2372 107.032 67.2372C107.027 67.2372 107.021 67.2372 107.016 67.2372C107.01 67.2372 107.005 67.2372 107 67.2372C106.994 67.2372 106.989 67.2372 106.983 67.2372C106.978 67.2372 106.972 67.2372 106.967 67.2372C106.961 67.2372 106.956 67.2372 106.95 67.2372C106.945 67.2372 106.939 67.2372 106.934 67.2372V68.2377ZM113.538 68.2377V69.2383C116.276 69.2383 118.422 69.1183 119.946 68.8644L119.781 67.8775L119.617 66.8906C118.258 67.117 116.242 67.2372 113.538 67.2372V68.2377ZM119.781 67.8775L119.998 68.8542C121.535 68.5126 122.804 67.9186 123.573 66.9309L122.783 66.3167L121.993 65.7024C121.641 66.1555 120.908 66.602 119.564 66.9008L119.781 67.8775ZM122.783 66.3167L123.602 66.8904C124.324 65.8593 124.624 64.5084 124.624 62.9548H123.623H122.623C122.623 64.2828 122.362 65.1731 121.963 65.7429L122.783 66.3167ZM123.623 62.9548H124.624C124.624 61.5123 124.414 60.2584 123.918 59.2655L123.023 59.713L122.128 60.1605C122.432 60.7684 122.623 61.6757 122.623 62.9548H123.623ZM123.023 59.713L123.918 59.2655C123.4 58.2298 122.501 57.418 121.336 56.7909L120.862 57.6719L120.387 58.5528C121.304 59.0464 121.845 59.5953 122.128 60.1605L123.023 59.713ZM120.862 57.6719L121.366 56.8076C120.322 56.1984 118.929 55.6126 117.216 55.0417L116.9 55.9909L116.583 56.9401C118.232 57.4899 119.481 58.0247 120.358 58.5361L120.862 57.6719ZM116.9 55.9909L117.27 55.0615L100.701 48.4578L100.33 49.3873L99.9599 50.3167L116.529 56.9204L116.9 55.9909ZM100.33 49.3873L100.714 48.463C94.2372 45.7777 89.7833 42.628 87.2133 39.0755L86.4027 39.6619L85.592 40.2484C88.4651 44.2199 93.2963 47.5539 99.9471 50.3115L100.33 49.3873ZM86.4027 39.6619L87.2133 39.0755C84.6486 35.53 83.321 30.8315 83.321 24.8937H82.3204H81.3199C81.3199 31.1227 82.7138 36.2696 85.592 40.2484L86.4027 39.6619ZM82.3204 24.8937H83.321C83.321 20.1632 83.9139 16.3781 85.0521 13.4946L84.1214 13.1272L83.1907 12.7599C81.9276 15.9598 81.3199 20.019 81.3199 24.8937H82.3204ZM84.1214 13.1272L85.0521 13.4946C86.1871 10.6193 87.9123 8.37944 90.2235 6.73921L89.6445 5.92325L89.0654 5.10729C86.4139 6.98901 84.4571 9.55183 83.1907 12.7599L84.1214 13.1272ZM89.6445 5.92325L90.2113 6.74775C92.6192 5.0923 95.8323 3.89122 99.9007 3.1871L99.73 2.2012L99.5594 1.2153C95.3031 1.95196 91.7925 3.23225 89.0776 5.09875L89.6445 5.92325ZM99.73 2.2012L99.919 3.18374C104.001 2.39881 108.937 2.00108 114.738 2.00108V1.00053V-2.29008e-05C108.854 -2.29008e-05 103.784 0.402696 99.5411 1.21865L99.73 2.2012ZM192.377 25.0138H193.378V23.5503L192.014 24.0815L192.377 25.0138ZM192.377 36.18L192.74 37.1123L193.378 36.864V36.18H192.377ZM151.074 52.2689H150.074V53.7324L151.438 53.2012L151.074 52.2689ZM151.074 41.1027L150.711 40.1704L150.074 40.4187V41.1027H151.074ZM179.53 2.68146H180.531V1.68091H179.53V2.68146ZM180.971 66.1966L180.263 66.9041L180.293 66.9335L180.325 66.9604L180.971 66.1966ZM213.509 67.5173L214.507 67.4536L214.448 66.5168H213.509V67.5173ZM214.589 84.4467L214.71 85.4399L215.648 85.3258L215.588 84.3829L214.589 84.4467ZM195.739 85.6473L195.727 84.6468L195.715 84.6471L195.739 85.6473ZM162 80.8447L161.293 81.5522V81.5522L162 80.8447ZM156.958 2.68146V1.68091L155.957 1.68091V2.68146L156.958 2.68146ZM192.377 25.0138H191.377V36.18H192.377H193.378V25.0138H192.377ZM192.377 36.18L192.014 35.2477L150.711 51.3366L151.074 52.2689L151.438 53.2012L192.74 37.1123L192.377 36.18ZM151.074 52.2689H152.075V41.1027H151.074H150.074V52.2689H151.074ZM151.074 41.1027L151.438 42.035L192.74 25.9461L192.377 25.0138L192.014 24.0815L150.711 40.1704L151.074 41.1027ZM179.53 2.68146L178.53 2.68146V62.3545H179.53H180.531V2.68146H179.53ZM179.53 62.3545H178.53C178.53 64.1697 179.082 65.7227 180.263 66.9041L180.971 66.1966L181.678 65.4891C180.939 64.7494 180.531 63.741 180.531 62.3545H179.53ZM180.971 66.1966L180.325 66.9604C181.601 68.0401 183.299 68.5179 185.293 68.5179V67.5173V66.5168C183.606 66.5168 182.422 66.1141 181.617 65.4328L180.971 66.1966ZM185.293 67.5173V68.5179H213.509V67.5173V66.5168H185.293V67.5173ZM213.509 67.5173L212.51 67.581L213.591 84.5104L214.589 84.4467L215.588 84.3829L214.507 67.4536L213.509 67.5173ZM214.589 84.4467L214.469 83.4534C208.585 84.169 202.338 84.5672 195.727 84.6469L195.739 85.6473L195.751 86.6478C202.427 86.5674 208.747 86.1652 214.71 85.4399L214.589 84.4467ZM195.739 85.6473L195.715 84.6471C189.079 84.807 182.524 84.8869 176.048 84.8869V85.8875V86.888C182.54 86.888 189.112 86.8079 195.763 86.6476L195.739 85.6473ZM176.048 85.8875V84.8869C170.237 84.8869 165.836 83.2652 162.708 80.1372L162 80.8447L161.293 81.5522C164.889 85.1479 169.853 86.888 176.048 86.888V85.8875ZM162 80.8447L162.708 80.1372C159.558 76.9876 157.958 72.8921 157.958 67.7574H156.958H155.957C155.957 73.3487 157.719 77.978 161.293 81.5522L162 80.8447ZM156.958 67.7574H157.958V2.68146H156.958L155.957 2.68146V67.7574H156.958ZM156.958 2.68146V3.68201L179.53 3.68201V2.68146V1.68091L156.958 1.68091V2.68146ZM291.56 2.68146L292.56 2.68146V1.68091L291.56 1.68091V2.68146ZM288.198 72.5601L287.279 72.1642L287.276 72.1712L288.198 72.5601ZM277.512 83.7263L277.936 84.6326V84.6326L277.512 83.7263ZM236.089 83.7263L235.686 84.6423L235.691 84.6445L236.089 83.7263ZM224.683 72.5601L223.769 72.9678L223.771 72.9731L224.683 72.5601ZM221.201 2.68146V1.68091H220.2V2.68146H221.201ZM243.773 2.68146H244.774V1.68091H243.773V2.68146ZM244.854 62.9548L243.888 63.2181V63.2181L244.854 62.9548ZM248.696 68.4778L248.204 69.3489L248.211 69.3533L248.219 69.3576L248.696 68.4778ZM267.906 62.9548L268.872 63.2181H268.872L267.906 62.9548ZM268.987 2.68146V1.68091H267.986V2.68146H268.987ZM291.56 2.68146H290.559V51.9087H291.56H292.56V2.68146L291.56 2.68146ZM291.56 51.9087H290.559C290.559 60.4003 289.446 67.1336 287.279 72.1643L288.198 72.5601L289.117 72.9559C291.432 67.5809 292.56 60.5465 292.56 51.9087H291.56ZM288.198 72.5601L287.276 72.1712C285.209 77.0696 281.823 80.6053 277.088 82.82L277.512 83.7263L277.936 84.6326C283.126 82.2047 286.864 78.2962 289.12 72.949L288.198 72.5601ZM277.512 83.7263L277.088 82.82C272.309 85.0554 265.828 86.2076 257.581 86.2076V87.2082V88.2088C265.983 88.2088 272.789 87.0397 277.936 84.6326L277.512 83.7263ZM257.581 87.2082V86.2076C248.687 86.2076 241.675 85.0539 236.486 82.808L236.089 83.7263L235.691 84.6445C241.229 87.0412 248.545 88.2088 257.581 88.2088V87.2082ZM236.089 83.7263L236.491 82.8102C231.428 80.5854 227.811 77.0389 225.594 72.1471L224.683 72.5601L223.771 72.9731C226.197 78.3269 230.184 82.2246 235.686 84.6423L236.089 83.7263ZM224.683 72.5601L225.596 72.1524C223.354 67.1258 222.201 60.3971 222.201 51.9087H221.201H220.2C220.2 60.5497 221.369 67.5887 223.769 72.9678L224.683 72.5601ZM221.201 51.9087H222.201V2.68146H221.201H220.2V51.9087H221.201ZM221.201 2.68146V3.68201L243.773 3.68201V2.68146V1.68091L221.201 1.68091V2.68146ZM243.773 2.68146H242.773V51.9087H243.773H244.774V2.68146H243.773ZM243.773 51.9087H242.773C242.773 56.6659 243.134 60.4507 243.888 63.2181L244.854 62.9548L245.819 62.6915C245.133 60.1759 244.774 56.5967 244.774 51.9087H243.773ZM244.854 62.9548L243.888 63.2181C244.657 66.0377 246.067 68.1413 248.204 69.3489L248.696 68.4778L249.188 67.6068C247.643 66.7332 246.491 65.1548 245.819 62.6915L244.854 62.9548ZM248.696 68.4778L248.219 69.3576C250.339 70.5058 253.084 71.0393 256.38 71.0393V70.0387V69.0381C253.273 69.0381 250.895 68.531 249.172 67.5981L248.696 68.4778ZM256.38 70.0387V71.0393C259.748 71.0393 262.505 70.5087 264.557 69.3489L264.064 68.4778L263.572 67.6068C261.942 68.5281 259.576 69.0381 256.38 69.0381V70.0387ZM264.064 68.4778L264.557 69.3489C266.693 68.1413 268.103 66.0377 268.872 63.2181L267.906 62.9548L266.941 62.6915C266.269 65.1548 265.118 66.7332 263.572 67.6068L264.064 68.4778ZM267.906 62.9548L268.872 63.2181C269.626 60.4507 269.988 56.6659 269.988 51.9087H268.987H267.986C267.986 56.5967 267.627 60.1759 266.941 62.6915L267.906 62.9548ZM268.987 51.9087H269.988V2.68146L268.987 2.68146H267.986V51.9087H268.987ZM268.987 2.68146V3.68201L291.56 3.68201V2.68146V1.68091L268.987 1.68091V2.68146ZM351.627 1.36073L351.551 2.35834L351.553 2.35848L351.627 1.36073ZM360.512 2.44133L360.338 3.42665L360.355 3.4295L360.371 3.43182L360.512 2.44133ZM368.797 4.24232L369.792 4.34478L369.877 3.51718L369.079 3.28242L368.797 4.24232ZM367.116 20.5714L367.088 21.5715L368.016 21.5973L368.111 20.6738L367.116 20.5714ZM358.711 20.4513L358.682 21.4514L358.697 21.4518H358.711V20.4513ZM350.427 20.3312L350.398 21.3314L350.412 21.3318H350.427V20.3312ZM333.978 21.1717L333.661 20.2224L333.649 20.2267L333.978 21.1717ZM329.535 24.7737L328.691 24.2365L328.682 24.2504L328.674 24.2647L329.535 24.7737ZM327.254 32.2178L328.243 32.3699L328.243 32.3662L327.254 32.2178ZM327.614 58.6324L326.635 58.8374L326.637 58.8482L326.64 58.859L327.614 58.6324ZM331.456 65.8364L330.844 66.6281V66.6281L331.456 65.8364ZM344.423 67.5173L344.565 68.5078L344.584 68.5051L344.602 68.5017L344.423 67.5173ZM349.106 66.3167L349.439 67.2602L349.454 67.2549L349.469 67.2492L349.106 66.3167ZM352.828 64.8759L353.803 64.65L353.543 63.5289L352.469 63.942L352.828 64.8759ZM355.109 74.7213L355.948 75.2666L356.18 74.9099L356.084 74.4954L355.109 74.7213ZM350.067 80.1243L350.718 80.884L350.72 80.8821L350.067 80.1243ZM341.662 85.1671L342.037 86.0945L342.047 86.0907L342.056 86.0867L341.662 85.1671ZM314.527 82.8858L313.932 83.6901L313.941 83.6968L313.95 83.7032L314.527 82.8858ZM305.642 68.9581L304.681 69.2378L304.685 69.249L305.642 68.9581ZM306.482 18.6503L305.551 18.2848L305.549 18.2911L306.482 18.6503ZM318.489 5.08279L318.052 4.18277L318.047 4.18528L318.489 5.08279ZM372.039 37.8609H373.039V36.8604H372.039V37.8609ZM372.039 85.5273V86.5278H373.039V85.5273H372.039ZM355.47 85.5273L354.496 85.7569L354.678 86.5278H355.47V85.5273ZM352.468 72.8002L353.442 72.5706L353.414 72.4511L353.357 72.342L352.468 72.8002ZM350.427 68.838H349.426V69.0806L349.537 69.2962L350.427 68.838ZM350.427 37.8609V36.8604H349.426V37.8609H350.427ZM340.821 1.00053V2.00108C344.885 2.00108 348.461 2.12065 351.551 2.35834L351.627 1.36073L351.704 0.363123C348.551 0.120542 344.922 -2.29008e-05 340.821 -2.29008e-05V1.00053ZM351.627 1.36073L351.553 2.35848C354.726 2.59651 357.654 2.95301 360.338 3.42665L360.512 2.44133L360.686 1.456C357.927 0.96911 354.932 0.605216 351.702 0.362978L351.627 1.36073ZM360.512 2.44133L360.371 3.43182C363.125 3.82523 365.839 4.41531 368.515 5.20222L368.797 4.24232L369.079 3.28242C366.312 2.46844 363.503 1.85787 360.654 1.45083L360.512 2.44133ZM368.797 4.24232L367.802 4.13986L366.121 20.4689L367.116 20.5714L368.111 20.6738L369.792 4.34478L368.797 4.24232ZM367.116 20.5714L367.144 19.5712C364.253 19.4909 361.443 19.4507 358.711 19.4507V20.4513V21.4518C361.423 21.4518 364.215 21.4917 367.088 21.5715L367.116 20.5714ZM358.711 20.4513L358.741 19.4512C356.009 19.3708 353.238 19.3307 350.427 19.3307V20.3312V21.3318C353.219 21.3318 355.971 21.3717 358.682 21.4514L358.711 20.4513ZM350.427 20.3312L350.455 19.3311C347.642 19.2507 344.511 19.2106 341.062 19.2106V20.2111V21.2117C344.496 21.2117 347.608 21.2516 350.398 21.3314L350.427 20.3312ZM341.062 20.2111V19.2106C338.191 19.2106 335.715 19.5379 333.661 20.2225L333.978 21.1717L334.294 22.1209C336.082 21.5248 338.329 21.2117 341.062 21.2117V20.2111ZM333.978 21.1717L333.649 20.2267C331.58 20.9465 329.924 22.2998 328.691 24.2365L329.535 24.7737L330.379 25.3108C331.388 23.7256 332.694 22.6776 334.306 22.1167L333.978 21.1717ZM329.535 24.7737L328.674 24.2647C327.541 26.1821 326.754 28.806 326.264 32.0694L327.254 32.2178L328.243 32.3662C328.714 29.2261 329.448 26.8872 330.397 25.2827L329.535 24.7737ZM327.254 32.2178L326.265 32.0656C325.774 35.2571 325.533 39.3151 325.533 44.2244H326.534H327.534C327.534 39.3684 327.773 35.422 328.243 32.3699L327.254 32.2178ZM326.534 44.2244H325.533C325.533 50.4136 325.894 55.296 326.635 58.8374L327.614 58.6324L328.593 58.4274C327.894 55.085 327.534 50.3621 327.534 44.2244H326.534ZM327.614 58.6324L326.64 58.859C327.463 62.4016 328.821 65.0645 330.844 66.6281L331.456 65.8364L332.068 65.0447C330.57 63.8868 329.366 61.747 328.589 58.4058L327.614 58.6324ZM331.456 65.8364L330.844 66.6281C332.839 68.1694 335.524 68.8781 338.78 68.8781V67.8775V66.877C335.793 66.877 333.595 66.2249 332.068 65.0447L331.456 65.8364ZM338.78 67.8775V68.8781C340.899 68.8781 342.828 68.7559 344.565 68.5078L344.423 67.5173L344.282 66.5268C342.657 66.759 340.824 66.877 338.78 66.877V67.8775ZM344.423 67.5173L344.602 68.5017C346.404 68.1742 348.018 67.7617 349.439 67.2602L349.106 66.3167L348.773 65.3731C347.473 65.8321 345.965 66.2201 344.244 66.5329L344.423 67.5173ZM349.106 66.3167L349.469 67.2492C350.909 66.6891 352.148 66.2094 353.187 65.8097L352.828 64.8759L352.469 63.942C351.427 64.3428 350.185 64.8235 348.743 65.3841L349.106 66.3167ZM352.828 64.8759L351.853 65.1017L354.135 74.9471L355.109 74.7213L356.084 74.4954L353.803 64.65L352.828 64.8759ZM355.109 74.7213L354.27 74.176C353.303 75.6646 351.701 77.3946 349.413 79.3665L350.067 80.1243L350.72 80.8821C353.075 78.8518 354.835 76.9797 355.948 75.2666L355.109 74.7213ZM350.067 80.1243L349.415 79.3646C347.267 81.206 344.558 82.8375 341.268 84.2474L341.662 85.1671L342.056 86.0867C345.49 84.6151 348.384 82.8847 350.718 80.884L350.067 80.1243ZM341.662 85.1671L341.287 84.2396C338.066 85.543 334.316 86.2076 330.015 86.2076V87.2082V88.2088C334.52 88.2088 338.534 87.5127 342.037 86.0945L341.662 85.1671ZM330.015 87.2082V86.2076C323.927 86.2076 318.979 84.804 315.104 82.0684L314.527 82.8858L313.95 83.7032C318.239 86.7308 323.617 88.2088 330.015 88.2088V87.2082ZM314.527 82.8858L315.122 82.0815C311.341 79.2838 308.478 74.852 306.599 68.6673L305.642 68.9581L304.685 69.249C306.648 75.7112 309.708 80.5645 313.932 83.6901L314.527 82.8858ZM305.642 68.9581L306.603 68.6784C304.799 62.4815 303.881 54.3017 303.881 44.1044H302.88H301.88C301.88 54.3984 302.803 62.7877 304.681 69.2378L305.642 68.9581ZM302.88 44.1044H303.881C303.881 33.4361 305.078 25.0902 307.416 19.0095L306.482 18.6503L305.549 18.2911C303.085 24.6973 301.88 33.3207 301.88 44.1044H302.88ZM306.482 18.6503L307.414 19.0158C309.814 12.8984 313.656 8.57987 318.931 5.9803L318.489 5.08279L318.047 4.18528C312.276 7.02871 308.113 11.7551 305.551 18.2848L306.482 18.6503ZM318.489 5.08279L318.926 5.98279C324.343 3.35186 331.62 2.00108 340.821 2.00108V1.00053V-2.29008e-05C331.453 -2.29008e-05 323.842 1.3707 318.052 4.18279L318.489 5.08279ZM372.039 37.8609H371.038V85.5273H372.039H373.039V37.8609H372.039ZM372.039 85.5273V84.5267H355.47V85.5273V86.5278H372.039V85.5273ZM355.47 85.5273L356.443 85.2976L353.442 72.5706L352.468 72.8002L351.494 73.0299L354.496 85.7569L355.47 85.5273ZM352.468 72.8002L353.357 72.342L351.316 68.3798L350.427 68.838L349.537 69.2962L351.578 73.2584L352.468 72.8002ZM350.427 68.838H351.427V37.8609H350.427H349.426V68.838H350.427ZM350.427 37.8609V38.8615L372.039 38.8615V37.8609V36.8604L350.427 36.8604V37.8609ZM407 2.68146H408V1.68091H407V2.68146ZM407 85.5273V86.5278H408V85.5273H407ZM384.667 85.5273H383.667V86.5278H384.667V85.5273ZM384.667 2.68146V1.68091H383.667V2.68146H384.667ZM407 2.68146H405.999V85.5273H407H408V2.68146H407ZM407 85.5273V84.5267H384.667V85.5273V86.5278H407V85.5273ZM384.667 85.5273H385.668V2.68146H384.667H383.667V85.5273H384.667ZM384.667 2.68146V3.68201L407 3.68201V2.68146V1.68091L384.667 1.68091V2.68146Z" fill="#2B1F24" mask="url(#path-1-outside-1_2136_860)"/>
</svg>
